ISO-10303-21;
HEADER;
/* Generated by software containing ST-Developer
 * from STEP Tools, Inc. (www.steptools.com) 
 */
/* OPTION: using custom renumber hook */

FILE_DESCRIPTION(
/* description */ ('STEP AP242 Edition 2',
'CAx-IF Rec.Pracs.---Representation and Presentation of Product Manufa
cturing Information (PMI)---4.0---2014-10-13',
'CAx-IF Rec.Pracs.---3D Tessellated Geometry---0.4---2014-09-14','2;1',
'CAx-IF Rec.Pracs.---User Defined Attributes---1.5---2016-08-15'),
/* implementation_level */ '2;1');

FILE_NAME(
/* name */ 'discocal_target',
/* time_stamp */ '2026-09-04T09:13:20Z',
/* author */ (''),
/* organization */ (''),
/* preprocessor_version */ 'ST-DEVELOPER v20',
/* originating_system */ 'ONSHAPE BY PTC INC, 1.220',
/* authorisation */ '  ');

FILE_SCHEMA (('AP242_MANAGED_MODEL_BASED_3D_ENGINEERING_MIM_LF { 1 0 10303 442 3 1 4 }'));
ENDSEC;

DATA;
#10=SHAPE_REPRESENTATION_RELATIONSHIP('','',#355,#11);
#11=ADVANCED_BREP_SHAPE_REPRESENTATION('',(#353),#585);
#12=CYLINDRICAL_SURFACE('',#387,0.008);
#13=CYLINDRICAL_SURFACE('',#388,0.008);
#14=CYLINDRICAL_SURFACE('',#389,0.008);
#15=CYLINDRICAL_SURFACE('',#390,0.008);
#16=CYLINDRICAL_SURFACE('',#391,0.008);
#17=CYLINDRICAL_SURFACE('',#392,0.008);
#18=CYLINDRICAL_SURFACE('',#393,0.008);
#19=CYLINDRICAL_SURFACE('',#394,0.008);
#20=CYLINDRICAL_SURFACE('',#395,0.008);
#21=CYLINDRICAL_SURFACE('',#396,0.008);
#22=CYLINDRICAL_SURFACE('',#397,0.008);
#23=CYLINDRICAL_SURFACE('',#398,0.008);
#24=CIRCLE('',#362,0.008);
#25=CIRCLE('',#363,0.008);
#26=CIRCLE('',#364,0.008);
#27=CIRCLE('',#365,0.008);
#28=CIRCLE('',#366,0.008);
#29=CIRCLE('',#367,0.008);
#30=CIRCLE('',#368,0.008);
#31=CIRCLE('',#369,0.008);
#32=CIRCLE('',#370,0.008);
#33=CIRCLE('',#371,0.008);
#34=CIRCLE('',#372,0.008);
#35=CIRCLE('',#373,0.008);
#36=CIRCLE('',#375,0.008);
#37=CIRCLE('',#376,0.008);
#38=CIRCLE('',#377,0.008);
#39=CIRCLE('',#378,0.008);
#40=CIRCLE('',#379,0.008);
#41=CIRCLE('',#380,0.008);
#42=CIRCLE('',#381,0.008);
#43=CIRCLE('',#382,0.008);
#44=CIRCLE('',#383,0.008);
#45=CIRCLE('',#384,0.008);
#46=CIRCLE('',#385,0.008);
#47=CIRCLE('',#386,0.008);
#48=ORIENTED_EDGE('',*,*,#120,.F.);
#49=ORIENTED_EDGE('',*,*,#121,.F.);
#50=ORIENTED_EDGE('',*,*,#122,.T.);
#51=ORIENTED_EDGE('',*,*,#123,.T.);
#52=ORIENTED_EDGE('',*,*,#124,.T.);
#53=ORIENTED_EDGE('',*,*,#125,.F.);
#54=ORIENTED_EDGE('',*,*,#126,.F.);
#55=ORIENTED_EDGE('',*,*,#121,.T.);
#56=ORIENTED_EDGE('',*,*,#127,.T.);
#57=ORIENTED_EDGE('',*,*,#128,.F.);
#58=ORIENTED_EDGE('',*,*,#129,.F.);
#59=ORIENTED_EDGE('',*,*,#125,.T.);
#60=ORIENTED_EDGE('',*,*,#130,.F.);
#61=ORIENTED_EDGE('',*,*,#123,.F.);
#62=ORIENTED_EDGE('',*,*,#131,.T.);
#63=ORIENTED_EDGE('',*,*,#128,.T.);
#64=ORIENTED_EDGE('',*,*,#132,.F.);
#65=ORIENTED_EDGE('',*,*,#133,.F.);
#66=ORIENTED_EDGE('',*,*,#134,.F.);
#67=ORIENTED_EDGE('',*,*,#135,.F.);
#68=ORIENTED_EDGE('',*,*,#136,.F.);
#69=ORIENTED_EDGE('',*,*,#137,.F.);
#70=ORIENTED_EDGE('',*,*,#138,.F.);
#71=ORIENTED_EDGE('',*,*,#139,.F.);
#72=ORIENTED_EDGE('',*,*,#140,.F.);
#73=ORIENTED_EDGE('',*,*,#141,.F.);
#74=ORIENTED_EDGE('',*,*,#142,.F.);
#75=ORIENTED_EDGE('',*,*,#143,.F.);
#76=ORIENTED_EDGE('',*,*,#122,.F.);
#77=ORIENTED_EDGE('',*,*,#126,.T.);
#78=ORIENTED_EDGE('',*,*,#129,.T.);
#79=ORIENTED_EDGE('',*,*,#131,.F.);
#80=ORIENTED_EDGE('',*,*,#144,.T.);
#81=ORIENTED_EDGE('',*,*,#145,.T.);
#82=ORIENTED_EDGE('',*,*,#146,.T.);
#83=ORIENTED_EDGE('',*,*,#147,.T.);
#84=ORIENTED_EDGE('',*,*,#148,.T.);
#85=ORIENTED_EDGE('',*,*,#149,.T.);
#86=ORIENTED_EDGE('',*,*,#150,.T.);
#87=ORIENTED_EDGE('',*,*,#151,.T.);
#88=ORIENTED_EDGE('',*,*,#152,.T.);
#89=ORIENTED_EDGE('',*,*,#153,.T.);
#90=ORIENTED_EDGE('',*,*,#154,.T.);
#91=ORIENTED_EDGE('',*,*,#155,.T.);
#92=ORIENTED_EDGE('',*,*,#120,.T.);
#93=ORIENTED_EDGE('',*,*,#130,.T.);
#94=ORIENTED_EDGE('',*,*,#127,.F.);
#95=ORIENTED_EDGE('',*,*,#124,.F.);
#96=ORIENTED_EDGE('',*,*,#143,.T.);
#97=ORIENTED_EDGE('',*,*,#155,.F.);
#98=ORIENTED_EDGE('',*,*,#142,.T.);
#99=ORIENTED_EDGE('',*,*,#154,.F.);
#100=ORIENTED_EDGE('',*,*,#141,.T.);
#101=ORIENTED_EDGE('',*,*,#153,.F.);
#102=ORIENTED_EDGE('',*,*,#140,.T.);
#103=ORIENTED_EDGE('',*,*,#152,.F.);
#104=ORIENTED_EDGE('',*,*,#139,.T.);
#105=ORIENTED_EDGE('',*,*,#151,.F.);
#106=ORIENTED_EDGE('',*,*,#138,.T.);
#107=ORIENTED_EDGE('',*,*,#150,.F.);
#108=ORIENTED_EDGE('',*,*,#137,.T.);
#109=ORIENTED_EDGE('',*,*,#149,.F.);
#110=ORIENTED_EDGE('',*,*,#136,.T.);
#111=ORIENTED_EDGE('',*,*,#148,.F.);
#112=ORIENTED_EDGE('',*,*,#135,.T.);
#113=ORIENTED_EDGE('',*,*,#147,.F.);
#114=ORIENTED_EDGE('',*,*,#134,.T.);
#115=ORIENTED_EDGE('',*,*,#146,.F.);
#116=ORIENTED_EDGE('',*,*,#133,.T.);
#117=ORIENTED_EDGE('',*,*,#145,.F.);
#118=ORIENTED_EDGE('',*,*,#132,.T.);
#119=ORIENTED_EDGE('',*,*,#144,.F.);
#120=EDGE_CURVE('',#156,#157,#188,.T.);
#121=EDGE_CURVE('',#158,#156,#189,.T.);
#122=EDGE_CURVE('',#158,#159,#190,.T.);
#123=EDGE_CURVE('',#159,#157,#191,.T.);
#124=EDGE_CURVE('',#156,#160,#192,.T.);
#125=EDGE_CURVE('',#161,#160,#193,.T.);
#126=EDGE_CURVE('',#158,#161,#194,.T.);
#127=EDGE_CURVE('',#160,#162,#195,.T.);
#128=EDGE_CURVE('',#163,#162,#196,.T.);
#129=EDGE_CURVE('',#161,#163,#197,.T.);
#130=EDGE_CURVE('',#157,#162,#198,.T.);
#131=EDGE_CURVE('',#159,#163,#199,.T.);
#132=EDGE_CURVE('',#164,#164,#24,.T.);
#133=EDGE_CURVE('',#165,#165,#25,.T.);
#134=EDGE_CURVE('',#166,#166,#26,.T.);
#135=EDGE_CURVE('',#167,#167,#27,.T.);
#136=EDGE_CURVE('',#168,#168,#28,.T.);
#137=EDGE_CURVE('',#169,#169,#29,.T.);
#138=EDGE_CURVE('',#170,#170,#30,.T.);
#139=EDGE_CURVE('',#171,#171,#31,.T.);
#140=EDGE_CURVE('',#172,#172,#32,.T.);
#141=EDGE_CURVE('',#173,#173,#33,.T.);
#142=EDGE_CURVE('',#174,#174,#34,.T.);
#143=EDGE_CURVE('',#175,#175,#35,.T.);
#144=EDGE_CURVE('',#176,#176,#36,.T.);
#145=EDGE_CURVE('',#177,#177,#37,.T.);
#146=EDGE_CURVE('',#178,#178,#38,.T.);
#147=EDGE_CURVE('',#179,#179,#39,.T.);
#148=EDGE_CURVE('',#180,#180,#40,.T.);
#149=EDGE_CURVE('',#181,#181,#41,.T.);
#150=EDGE_CURVE('',#182,#182,#42,.T.);
#151=EDGE_CURVE('',#183,#183,#43,.T.);
#152=EDGE_CURVE('',#184,#184,#44,.T.);
#153=EDGE_CURVE('',#185,#185,#45,.T.);
#154=EDGE_CURVE('',#186,#186,#46,.T.);
#155=EDGE_CURVE('',#187,#187,#47,.T.);
#156=VERTEX_POINT('',#500);
#157=VERTEX_POINT('',#501);
#158=VERTEX_POINT('',#503);
#159=VERTEX_POINT('',#505);
#160=VERTEX_POINT('',#509);
#161=VERTEX_POINT('',#511);
#162=VERTEX_POINT('',#515);
#163=VERTEX_POINT('',#517);
#164=VERTEX_POINT('',#524);
#165=VERTEX_POINT('',#526);
#166=VERTEX_POINT('',#528);
#167=VERTEX_POINT('',#530);
#168=VERTEX_POINT('',#532);
#169=VERTEX_POINT('',#534);
#170=VERTEX_POINT('',#536);
#171=VERTEX_POINT('',#538);
#172=VERTEX_POINT('',#540);
#173=VERTEX_POINT('',#542);
#174=VERTEX_POINT('',#544);
#175=VERTEX_POINT('',#546);
#176=VERTEX_POINT('',#549);
#177=VERTEX_POINT('',#551);
#178=VERTEX_POINT('',#553);
#179=VERTEX_POINT('',#555);
#180=VERTEX_POINT('',#557);
#181=VERTEX_POINT('',#559);
#182=VERTEX_POINT('',#561);
#183=VERTEX_POINT('',#563);
#184=VERTEX_POINT('',#565);
#185=VERTEX_POINT('',#567);
#186=VERTEX_POINT('',#569);
#187=VERTEX_POINT('',#571);
#188=LINE('',#499,#200);
#189=LINE('',#502,#201);
#190=LINE('',#504,#202);
#191=LINE('',#506,#203);
#192=LINE('',#508,#204);
#193=LINE('',#510,#205);
#194=LINE('',#512,#206);
#195=LINE('',#514,#207);
#196=LINE('',#516,#208);
#197=LINE('',#518,#209);
#198=LINE('',#520,#210);
#199=LINE('',#521,#211);
#200=VECTOR('',#403,1.);
#201=VECTOR('',#404,1.);
#202=VECTOR('',#405,1.);
#203=VECTOR('',#406,1.);
#204=VECTOR('',#409,1.);
#205=VECTOR('',#410,1.);
#206=VECTOR('',#411,1.);
#207=VECTOR('',#414,1.);
#208=VECTOR('',#415,1.);
#209=VECTOR('',#416,1.);
#210=VECTOR('',#419,1.);
#211=VECTOR('',#420,1.);
#212=EDGE_LOOP('',(#48,#49,#50,#51));
#213=EDGE_LOOP('',(#52,#53,#54,#55));
#214=EDGE_LOOP('',(#56,#57,#58,#59));
#215=EDGE_LOOP('',(#60,#61,#62,#63));
#216=EDGE_LOOP('',(#64));
#217=EDGE_LOOP('',(#65));
#218=EDGE_LOOP('',(#66));
#219=EDGE_LOOP('',(#67));
#220=EDGE_LOOP('',(#68));
#221=EDGE_LOOP('',(#69));
#222=EDGE_LOOP('',(#70));
#223=EDGE_LOOP('',(#71));
#224=EDGE_LOOP('',(#72));
#225=EDGE_LOOP('',(#73));
#226=EDGE_LOOP('',(#74));
#227=EDGE_LOOP('',(#75));
#228=EDGE_LOOP('',(#76,#77,#78,#79));
#229=EDGE_LOOP('',(#80));
#230=EDGE_LOOP('',(#81));
#231=EDGE_LOOP('',(#82));
#232=EDGE_LOOP('',(#83));
#233=EDGE_LOOP('',(#84));
#234=EDGE_LOOP('',(#85));
#235=EDGE_LOOP('',(#86));
#236=EDGE_LOOP('',(#87));
#237=EDGE_LOOP('',(#88));
#238=EDGE_LOOP('',(#89));
#239=EDGE_LOOP('',(#90));
#240=EDGE_LOOP('',(#91));
#241=EDGE_LOOP('',(#92,#93,#94,#95));
#242=EDGE_LOOP('',(#96));
#243=EDGE_LOOP('',(#97));
#244=EDGE_LOOP('',(#98));
#245=EDGE_LOOP('',(#99));
#246=EDGE_LOOP('',(#100));
#247=EDGE_LOOP('',(#101));
#248=EDGE_LOOP('',(#102));
#249=EDGE_LOOP('',(#103));
#250=EDGE_LOOP('',(#104));
#251=EDGE_LOOP('',(#105));
#252=EDGE_LOOP('',(#106));
#253=EDGE_LOOP('',(#107));
#254=EDGE_LOOP('',(#108));
#255=EDGE_LOOP('',(#109));
#256=EDGE_LOOP('',(#110));
#257=EDGE_LOOP('',(#111));
#258=EDGE_LOOP('',(#112));
#259=EDGE_LOOP('',(#113));
#260=EDGE_LOOP('',(#114));
#261=EDGE_LOOP('',(#115));
#262=EDGE_LOOP('',(#116));
#263=EDGE_LOOP('',(#117));
#264=EDGE_LOOP('',(#118));
#265=EDGE_LOOP('',(#119));
#266=FACE_BOUND('',#212,.T.);
#267=FACE_BOUND('',#213,.T.);
#268=FACE_BOUND('',#214,.T.);
#269=FACE_BOUND('',#215,.T.);
#270=FACE_BOUND('',#216,.T.);
#271=FACE_BOUND('',#217,.T.);
#272=FACE_BOUND('',#218,.T.);
#273=FACE_BOUND('',#219,.T.);
#274=FACE_BOUND('',#220,.T.);
#275=FACE_BOUND('',#221,.T.);
#276=FACE_BOUND('',#222,.T.);
#277=FACE_BOUND('',#223,.T.);
#278=FACE_BOUND('',#224,.T.);
#279=FACE_BOUND('',#225,.T.);
#280=FACE_BOUND('',#226,.T.);
#281=FACE_BOUND('',#227,.T.);
#282=FACE_BOUND('',#228,.T.);
#283=FACE_BOUND('',#229,.T.);
#284=FACE_BOUND('',#230,.T.);
#285=FACE_BOUND('',#231,.T.);
#286=FACE_BOUND('',#232,.T.);
#287=FACE_BOUND('',#233,.T.);
#288=FACE_BOUND('',#234,.T.);
#289=FACE_BOUND('',#235,.T.);
#290=FACE_BOUND('',#236,.T.);
#291=FACE_BOUND('',#237,.T.);
#292=FACE_BOUND('',#238,.T.);
#293=FACE_BOUND('',#239,.T.);
#294=FACE_BOUND('',#240,.T.);
#295=FACE_BOUND('',#241,.T.);
#296=FACE_BOUND('',#242,.T.);
#297=FACE_BOUND('',#243,.T.);
#298=FACE_BOUND('',#244,.T.);
#299=FACE_BOUND('',#245,.T.);
#300=FACE_BOUND('',#246,.T.);
#301=FACE_BOUND('',#247,.T.);
#302=FACE_BOUND('',#248,.T.);
#303=FACE_BOUND('',#249,.T.);
#304=FACE_BOUND('',#250,.T.);
#305=FACE_BOUND('',#251,.T.);
#306=FACE_BOUND('',#252,.T.);
#307=FACE_BOUND('',#253,.T.);
#308=FACE_BOUND('',#254,.T.);
#309=FACE_BOUND('',#255,.T.);
#310=FACE_BOUND('',#256,.T.);
#311=FACE_BOUND('',#257,.T.);
#312=FACE_BOUND('',#258,.T.);
#313=FACE_BOUND('',#259,.T.);
#314=FACE_BOUND('',#260,.T.);
#315=FACE_BOUND('',#261,.T.);
#316=FACE_BOUND('',#262,.T.);
#317=FACE_BOUND('',#263,.T.);
#318=FACE_BOUND('',#264,.T.);
#319=FACE_BOUND('',#265,.T.);
#320=PLANE('',#357);
#321=PLANE('',#358);
#322=PLANE('',#359);
#323=PLANE('',#360);
#324=PLANE('',#361);
#325=PLANE('',#374);
#326=ADVANCED_FACE('',(#266),#320,.T.);
#327=ADVANCED_FACE('',(#267),#321,.F.);
#328=ADVANCED_FACE('',(#268),#322,.F.);
#329=ADVANCED_FACE('',(#269),#323,.T.);
#330=ADVANCED_FACE('',(#270,#271,#272,#273,#274,#275,#276,#277,#278,#279,
#280,#281,#282),#324,.T.);
#331=ADVANCED_FACE('',(#283,#284,#285,#286,#287,#288,#289,#290,#291,#292,
#293,#294,#295),#325,.F.);
#332=ADVANCED_FACE('',(#296,#297),#12,.F.);
#333=ADVANCED_FACE('',(#298,#299),#13,.F.);
#334=ADVANCED_FACE('',(#300,#301),#14,.F.);
#335=ADVANCED_FACE('',(#302,#303),#15,.F.);
#336=ADVANCED_FACE('',(#304,#305),#16,.F.);
#337=ADVANCED_FACE('',(#306,#307),#17,.F.);
#338=ADVANCED_FACE('',(#308,#309),#18,.F.);
#339=ADVANCED_FACE('',(#310,#311),#19,.F.);
#340=ADVANCED_FACE('',(#312,#313),#20,.F.);
#341=ADVANCED_FACE('',(#314,#315),#21,.F.);
#342=ADVANCED_FACE('',(#316,#317),#22,.F.);
#343=ADVANCED_FACE('',(#318,#319),#23,.F.);
#344=CLOSED_SHELL('',(#326,#327,#328,#329,#330,#331,#332,#333,#334,#335,
#336,#337,#338,#339,#340,#341,#342,#343));
#345=STYLED_ITEM('',(#346),#353);
#346=PRESENTATION_STYLE_ASSIGNMENT((#347));
#347=SURFACE_STYLE_USAGE(.BOTH.,#348);
#348=SURFACE_SIDE_STYLE('',(#349));
#349=SURFACE_STYLE_FILL_AREA(#350);
#350=FILL_AREA_STYLE('',(#351));
#351=FILL_AREA_STYLE_COLOUR('',#352);
#352=COLOUR_RGB('',0.615686274509804,0.811764705882353,0.929411764705882);
#353=MANIFOLD_SOLID_BREP('Part 1',#344);
#354=SHAPE_DEFINITION_REPRESENTATION(#590,#355);
#355=SHAPE_REPRESENTATION('Part 1',(#356),#585);
#356=AXIS2_PLACEMENT_3D('',#497,#399,#400);
#357=AXIS2_PLACEMENT_3D('',#498,#401,#402);
#358=AXIS2_PLACEMENT_3D('',#507,#407,#408);
#359=AXIS2_PLACEMENT_3D('',#513,#412,#413);
#360=AXIS2_PLACEMENT_3D('',#519,#417,#418);
#361=AXIS2_PLACEMENT_3D('',#522,#421,#422);
#362=AXIS2_PLACEMENT_3D('',#523,#423,#424);
#363=AXIS2_PLACEMENT_3D('',#525,#425,#426);
#364=AXIS2_PLACEMENT_3D('',#527,#427,#428);
#365=AXIS2_PLACEMENT_3D('',#529,#429,#430);
#366=AXIS2_PLACEMENT_3D('',#531,#431,#432);
#367=AXIS2_PLACEMENT_3D('',#533,#433,#434);
#368=AXIS2_PLACEMENT_3D('',#535,#435,#436);
#369=AXIS2_PLACEMENT_3D('',#537,#437,#438);
#370=AXIS2_PLACEMENT_3D('',#539,#439,#440);
#371=AXIS2_PLACEMENT_3D('',#541,#441,#442);
#372=AXIS2_PLACEMENT_3D('',#543,#443,#444);
#373=AXIS2_PLACEMENT_3D('',#545,#445,#446);
#374=AXIS2_PLACEMENT_3D('',#547,#447,#448);
#375=AXIS2_PLACEMENT_3D('',#548,#449,#450);
#376=AXIS2_PLACEMENT_3D('',#550,#451,#452);
#377=AXIS2_PLACEMENT_3D('',#552,#453,#454);
#378=AXIS2_PLACEMENT_3D('',#554,#455,#456);
#379=AXIS2_PLACEMENT_3D('',#556,#457,#458);
#380=AXIS2_PLACEMENT_3D('',#558,#459,#460);
#381=AXIS2_PLACEMENT_3D('',#560,#461,#462);
#382=AXIS2_PLACEMENT_3D('',#562,#463,#464);
#383=AXIS2_PLACEMENT_3D('',#564,#465,#466);
#384=AXIS2_PLACEMENT_3D('',#566,#467,#468);
#385=AXIS2_PLACEMENT_3D('',#568,#469,#470);
#386=AXIS2_PLACEMENT_3D('',#570,#471,#472);
#387=AXIS2_PLACEMENT_3D('',#572,#473,#474);
#388=AXIS2_PLACEMENT_3D('',#573,#475,#476);
#389=AXIS2_PLACEMENT_3D('',#574,#477,#478);
#390=AXIS2_PLACEMENT_3D('',#575,#479,#480);
#391=AXIS2_PLACEMENT_3D('',#576,#481,#482);
#392=AXIS2_PLACEMENT_3D('',#577,#483,#484);
#393=AXIS2_PLACEMENT_3D('',#578,#485,#486);
#394=AXIS2_PLACEMENT_3D('',#579,#487,#488);
#395=AXIS2_PLACEMENT_3D('',#580,#489,#490);
#396=AXIS2_PLACEMENT_3D('',#581,#491,#492);
#397=AXIS2_PLACEMENT_3D('',#582,#493,#494);
#398=AXIS2_PLACEMENT_3D('',#583,#495,#496);
#399=DIRECTION('',(0.,0.,1.));
#400=DIRECTION('',(1.,0.,0.));
#401=DIRECTION('',(1.,-3.46944695195362E-16,0.));
#402=DIRECTION('',(3.46944695195362E-16,1.,0.));
#403=DIRECTION('',(-3.46944695195362E-16,-1.,0.));
#404=DIRECTION('',(0.,0.,-1.));
#405=DIRECTION('',(-3.46944695195362E-16,-1.,0.));
#406=DIRECTION('',(0.,0.,-1.));
#407=DIRECTION('',(0.,-1.,0.));
#408=DIRECTION('',(0.,0.,-1.));
#409=DIRECTION('',(-1.,0.,0.));
#410=DIRECTION('',(0.,0.,-1.));
#411=DIRECTION('',(-1.,0.,0.));
#412=DIRECTION('',(1.,-3.46944695195362E-16,0.));
#413=DIRECTION('',(3.46944695195362E-16,1.,0.));
#414=DIRECTION('',(-3.46944695195362E-16,-1.,0.));
#415=DIRECTION('',(0.,0.,-1.));
#416=DIRECTION('',(-3.46944695195362E-16,-1.,0.));
#417=DIRECTION('',(0.,-1.,0.));
#418=DIRECTION('',(0.,0.,-1.));
#419=DIRECTION('',(-1.,0.,0.));
#420=DIRECTION('',(-1.,0.,0.));
#421=DIRECTION('',(0.,0.,1.));
#422=DIRECTION('',(1.,0.,0.));
#423=DIRECTION('',(0.,0.,1.));
#424=DIRECTION('',(1.,0.,0.));
#425=DIRECTION('',(0.,0.,1.));
#426=DIRECTION('',(1.,0.,0.));
#427=DIRECTION('',(0.,0.,1.));
#428=DIRECTION('',(1.,0.,0.));
#429=DIRECTION('',(0.,0.,1.));
#430=DIRECTION('',(1.,0.,0.));
#431=DIRECTION('',(0.,0.,1.));
#432=DIRECTION('',(1.,0.,0.));
#433=DIRECTION('',(0.,0.,1.));
#434=DIRECTION('',(1.,0.,0.));
#435=DIRECTION('',(0.,0.,1.));
#436=DIRECTION('',(1.,0.,0.));
#437=DIRECTION('',(0.,0.,1.));
#438=DIRECTION('',(1.,0.,0.));
#439=DIRECTION('',(0.,0.,1.));
#440=DIRECTION('',(1.,0.,0.));
#441=DIRECTION('',(0.,0.,1.));
#442=DIRECTION('',(1.,0.,0.));
#443=DIRECTION('',(0.,0.,1.));
#444=DIRECTION('',(1.,0.,0.));
#445=DIRECTION('',(0.,0.,1.));
#446=DIRECTION('',(1.,0.,0.));
#447=DIRECTION('',(0.,0.,1.));
#448=DIRECTION('',(1.,0.,0.));
#449=DIRECTION('',(0.,0.,1.));
#450=DIRECTION('',(1.,0.,0.));
#451=DIRECTION('',(0.,0.,1.));
#452=DIRECTION('',(1.,0.,0.));
#453=DIRECTION('',(0.,0.,1.));
#454=DIRECTION('',(1.,0.,0.));
#455=DIRECTION('',(0.,0.,1.));
#456=DIRECTION('',(1.,0.,0.));
#457=DIRECTION('',(0.,0.,1.));
#458=DIRECTION('',(1.,0.,0.));
#459=DIRECTION('',(0.,0.,1.));
#460=DIRECTION('',(1.,0.,0.));
#461=DIRECTION('',(0.,0.,1.));
#462=DIRECTION('',(1.,0.,0.));
#463=DIRECTION('',(0.,0.,1.));
#464=DIRECTION('',(1.,0.,0.));
#465=DIRECTION('',(0.,0.,1.));
#466=DIRECTION('',(1.,0.,0.));
#467=DIRECTION('',(0.,0.,1.));
#468=DIRECTION('',(1.,0.,0.));
#469=DIRECTION('',(0.,0.,1.));
#470=DIRECTION('',(1.,0.,0.));
#471=DIRECTION('',(0.,0.,1.));
#472=DIRECTION('',(1.,0.,0.));
#473=DIRECTION('',(0.,0.,-1.));
#474=DIRECTION('',(-1.,0.,0.));
#475=DIRECTION('',(0.,0.,-1.));
#476=DIRECTION('',(-1.,0.,0.));
#477=DIRECTION('',(0.,0.,-1.));
#478=DIRECTION('',(-1.,0.,0.));
#479=DIRECTION('',(0.,0.,-1.));
#480=DIRECTION('',(-1.,0.,0.));
#481=DIRECTION('',(0.,0.,-1.));
#482=DIRECTION('',(-1.,0.,0.));
#483=DIRECTION('',(0.,0.,-1.));
#484=DIRECTION('',(-1.,0.,0.));
#485=DIRECTION('',(0.,0.,-1.));
#486=DIRECTION('',(-1.,0.,0.));
#487=DIRECTION('',(0.,0.,-1.));
#488=DIRECTION('',(-1.,0.,0.));
#489=DIRECTION('',(0.,0.,-1.));
#490=DIRECTION('',(-1.,0.,0.));
#491=DIRECTION('',(0.,0.,-1.));
#492=DIRECTION('',(-1.,0.,0.));
#493=DIRECTION('',(0.,0.,-1.));
#494=DIRECTION('',(-1.,0.,0.));
#495=DIRECTION('',(0.,0.,-1.));
#496=DIRECTION('',(-1.,0.,0.));
#497=CARTESIAN_POINT('',(0.,0.,0.));
#498=CARTESIAN_POINT('',(0.05,-6.93889390390723E-18,0.002));
#499=CARTESIAN_POINT('',(0.05,-6.93889390390723E-18,0.));
#500=CARTESIAN_POINT('',(0.05,0.05,0.));
#501=CARTESIAN_POINT('',(0.05,-0.05,0.));
#502=CARTESIAN_POINT('',(0.05,0.05,0.002));
#503=CARTESIAN_POINT('',(0.05,0.05,0.002));
#504=CARTESIAN_POINT('',(0.05,-6.93889390390723E-18,0.002));
#505=CARTESIAN_POINT('',(0.05,-0.05,0.002));
#506=CARTESIAN_POINT('',(0.05,-0.05,0.002));
#507=CARTESIAN_POINT('',(2.42861286636753E-17,0.05,0.002));
#508=CARTESIAN_POINT('',(2.42861286636753E-17,0.05,0.));
#509=CARTESIAN_POINT('',(-0.05,0.05,0.));
#510=CARTESIAN_POINT('',(-0.05,0.05,0.002));
#511=CARTESIAN_POINT('',(-0.05,0.05,0.002));
#512=CARTESIAN_POINT('',(2.42861286636753E-17,0.05,0.002));
#513=CARTESIAN_POINT('',(-0.05,-6.93889390390723E-18,0.002));
#514=CARTESIAN_POINT('',(-0.05,-6.93889390390723E-18,0.));
#515=CARTESIAN_POINT('',(-0.05,-0.05,0.));
#516=CARTESIAN_POINT('',(-0.05,-0.05,0.002));
#517=CARTESIAN_POINT('',(-0.05,-0.05,0.002));
#518=CARTESIAN_POINT('',(-0.05,-6.93889390390723E-18,0.002));
#519=CARTESIAN_POINT('',(-2.08166817117217E-17,-0.05,0.002));
#520=CARTESIAN_POINT('',(-2.08166817117217E-17,-0.05,0.));
#521=CARTESIAN_POINT('',(-2.08166817117217E-17,-0.05,0.002));
#522=CARTESIAN_POINT('',(0.,-3.46944695195361E-18,0.002));
#523=CARTESIAN_POINT('',(0.012,-2.03268229920628E-17,0.002));
#524=CARTESIAN_POINT('',(0.02,-2.03268229920628E-17,0.002));
#525=CARTESIAN_POINT('',(-0.012,-1.33879290881555E-17,0.002));
#526=CARTESIAN_POINT('',(-0.004,-1.33879290881555E-17,0.002));
#527=CARTESIAN_POINT('',(-0.036,-6.44903518424829E-18,0.002));
#528=CARTESIAN_POINT('',(-0.028,-6.44903518424829E-18,0.002));
#529=CARTESIAN_POINT('',(0.036,-0.024,0.002));
#530=CARTESIAN_POINT('',(0.044,-0.024,0.002));
#531=CARTESIAN_POINT('',(0.012,0.024,0.002));
#532=CARTESIAN_POINT('',(0.02,0.024,0.002));
#533=CARTESIAN_POINT('',(-0.012,0.024,0.002));
#534=CARTESIAN_POINT('',(-0.004,0.024,0.002));
#535=CARTESIAN_POINT('',(-0.036,0.024,0.002));
#536=CARTESIAN_POINT('',(-0.028,0.024,0.002));
#537=CARTESIAN_POINT('',(0.036,-2.726571689597E-17,0.002));
#538=CARTESIAN_POINT('',(0.044,-2.726571689597E-17,0.002));
#539=CARTESIAN_POINT('',(0.012,-0.024,0.002));
#540=CARTESIAN_POINT('',(0.02,-0.024,0.002));
#541=CARTESIAN_POINT('',(-0.012,-0.024,0.002));
#542=CARTESIAN_POINT('',(-0.004,-0.024,0.002));
#543=CARTESIAN_POINT('',(-0.036,-0.024,0.002));
#544=CARTESIAN_POINT('',(-0.028,-0.024,0.002));
#545=CARTESIAN_POINT('',(0.036,0.024,0.002));
#546=CARTESIAN_POINT('',(0.044,0.024,0.002));
#547=CARTESIAN_POINT('',(0.,-3.46944695195361E-18,0.));
#548=CARTESIAN_POINT('',(0.012,-2.03268229920628E-17,0.));
#549=CARTESIAN_POINT('',(0.02,-2.03268229920628E-17,0.));
#550=CARTESIAN_POINT('',(-0.012,-1.33879290881555E-17,0.));
#551=CARTESIAN_POINT('',(-0.004,-1.33879290881555E-17,0.));
#552=CARTESIAN_POINT('',(-0.036,-6.44903518424829E-18,0.));
#553=CARTESIAN_POINT('',(-0.028,-6.44903518424829E-18,0.));
#554=CARTESIAN_POINT('',(0.036,-0.024,0.));
#555=CARTESIAN_POINT('',(0.044,-0.024,0.));
#556=CARTESIAN_POINT('',(0.012,0.024,0.));
#557=CARTESIAN_POINT('',(0.02,0.024,0.));
#558=CARTESIAN_POINT('',(-0.012,0.024,0.));
#559=CARTESIAN_POINT('',(-0.004,0.024,0.));
#560=CARTESIAN_POINT('',(-0.036,0.024,0.));
#561=CARTESIAN_POINT('',(-0.028,0.024,0.));
#562=CARTESIAN_POINT('',(0.036,-2.726571689597E-17,0.));
#563=CARTESIAN_POINT('',(0.044,-2.726571689597E-17,0.));
#564=CARTESIAN_POINT('',(0.012,-0.024,0.));
#565=CARTESIAN_POINT('',(0.02,-0.024,0.));
#566=CARTESIAN_POINT('',(-0.012,-0.024,0.));
#567=CARTESIAN_POINT('',(-0.004,-0.024,0.));
#568=CARTESIAN_POINT('',(-0.036,-0.024,0.));
#569=CARTESIAN_POINT('',(-0.028,-0.024,0.));
#570=CARTESIAN_POINT('',(0.036,0.024,0.));
#571=CARTESIAN_POINT('',(0.044,0.024,0.));
#572=CARTESIAN_POINT('',(0.036,0.024,0.002));
#573=CARTESIAN_POINT('',(-0.036,-0.024,0.002));
#574=CARTESIAN_POINT('',(-0.012,-0.024,0.002));
#575=CARTESIAN_POINT('',(0.012,-0.024,0.002));
#576=CARTESIAN_POINT('',(0.036,-2.726571689597E-17,0.002));
#577=CARTESIAN_POINT('',(-0.036,0.024,0.002));
#578=CARTESIAN_POINT('',(-0.012,0.024,0.002));
#579=CARTESIAN_POINT('',(0.012,0.024,0.002));
#580=CARTESIAN_POINT('',(0.036,-0.024,0.002));
#581=CARTESIAN_POINT('',(-0.036,-6.44903518424829E-18,0.002));
#582=CARTESIAN_POINT('',(-0.012,-1.33879290881555E-17,0.002));
#583=CARTESIAN_POINT('',(0.012,-2.03268229920628E-17,0.002));
#584=MECHANICAL_DESIGN_GEOMETRIC_PRESENTATION_REPRESENTATION('',(#345),
#585);
#585=(
GEOMETRIC_REPRESENTATION_CONTEXT(3)
GLOBAL_UNCERTAINTY_ASSIGNED_CONTEXT((#586))
GLOBAL_UNIT_ASSIGNED_CONTEXT((#589,#588,#587))
REPRESENTATION_CONTEXT('Part 1','TOP_LEVEL_ASSEMBLY_PART')
);
#586=UNCERTAINTY_MEASURE_WITH_UNIT(LENGTH_MEASURE(1.E-8),#589,
'DISTANCE_ACCURACY_VALUE','Maximum Tolerance applied to model');
#587=(
NAMED_UNIT(*)
SI_UNIT($,.STERADIAN.)
SOLID_ANGLE_UNIT()
);
#588=(
NAMED_UNIT(*)
PLANE_ANGLE_UNIT()
SI_UNIT($,.RADIAN.)
);
#589=(
LENGTH_UNIT()
NAMED_UNIT(*)
SI_UNIT($,.METRE.)
);
#590=PRODUCT_DEFINITION_SHAPE('','',#591);
#591=PRODUCT_DEFINITION('','',#593,#592);
#592=PRODUCT_DEFINITION_CONTEXT('',#599,'design');
#593=PRODUCT_DEFINITION_FORMATION_WITH_SPECIFIED_SOURCE('','',#595,
 .NOT_KNOWN.);
#594=PRODUCT_RELATED_PRODUCT_CATEGORY('','',(#595));
#595=PRODUCT('Part 1','Part 1','Part 1',(#597));
#596=PRODUCT_CATEGORY('','');
#597=PRODUCT_CONTEXT('',#599,'mechanical');
#598=APPLICATION_PROTOCOL_DEFINITION('international standard',
'ap242_managed_model_based_3d_engineering',2020,#599);
#599=APPLICATION_CONTEXT('managed model based 3d engineering');
ENDSEC;
END-ISO-10303-21;
