ISO-10303-21;
HEADER;
/* Generated by software containing ST-Developer
 * from STEP Tools, Inc. (www.steptools.com) 
 */
/* OPTION: using custom renumber hook */

FILE_DESCRIPTION(
/* description */ ('STEP AP242 Edition 2',
'CAx-IF Rec.Pracs.---Representation and Presentation of Product Manufa
cturing Information (PMI)---4.0---2014-10-13',
'CAx-IF Rec.Pracs.---3D Tessellated Geometry---0.4---2014-09-14','2;1',
'CAx-IF Rec.Pracs.---User Defined Attributes---1.5---2016-08-15'),
/* implementation_level */ '2;1');

FILE_NAME(
/* name */ 'rgb_flange',
/* time_stamp */ '2026-09-04T09:13:11Z',
/* author */ (''),
/* organization */ (''),
/* preprocessor_version */ 'ST-DEVELOPER v20',
/* originating_system */ 'ONSHAPE BY PTC INC, 1.220',
/* authorisation */ '  ');

FILE_SCHEMA (('AP242_MANAGED_MODEL_BASED_3D_ENGINEERING_MIM_LF { 1 0 10303 442 3 1 4 }'));
ENDSEC;

DATA;
#10=SHAPE_REPRESENTATION_RELATIONSHIP('','',#697,#11);
#11=ADVANCED_BREP_SHAPE_REPRESENTATION('',(#695),#1107);
#12=CYLINDRICAL_SURFACE('',#736,0.00175);
#13=CYLINDRICAL_SURFACE('',#737,0.00175);
#14=CYLINDRICAL_SURFACE('',#738,0.00125);
#15=CYLINDRICAL_SURFACE('',#739,0.00125);
#16=CYLINDRICAL_SURFACE('',#740,0.00125);
#17=CYLINDRICAL_SURFACE('',#741,0.00125);
#18=CIRCLE('',#701,0.00175);
#19=CIRCLE('',#702,0.00175);
#20=CIRCLE('',#704,0.00175);
#21=CIRCLE('',#705,0.00175);
#22=CIRCLE('',#706,0.00125);
#23=CIRCLE('',#707,0.00125);
#24=CIRCLE('',#708,0.00125);
#25=CIRCLE('',#709,0.00125);
#26=CIRCLE('',#721,0.00125);
#27=CIRCLE('',#726,0.00125);
#28=CIRCLE('',#731,0.00125);
#29=CIRCLE('',#735,0.00125);
#30=ORIENTED_EDGE('',*,*,#210,.F.);
#31=ORIENTED_EDGE('',*,*,#211,.T.);
#32=ORIENTED_EDGE('',*,*,#212,.F.);
#33=ORIENTED_EDGE('',*,*,#213,.F.);
#34=ORIENTED_EDGE('',*,*,#214,.F.);
#35=ORIENTED_EDGE('',*,*,#215,.F.);
#36=ORIENTED_EDGE('',*,*,#216,.T.);
#37=ORIENTED_EDGE('',*,*,#217,.F.);
#38=ORIENTED_EDGE('',*,*,#218,.F.);
#39=ORIENTED_EDGE('',*,*,#219,.F.);
#40=ORIENTED_EDGE('',*,*,#220,.T.);
#41=ORIENTED_EDGE('',*,*,#221,.T.);
#42=ORIENTED_EDGE('',*,*,#222,.T.);
#43=ORIENTED_EDGE('',*,*,#223,.F.);
#44=ORIENTED_EDGE('',*,*,#217,.T.);
#45=ORIENTED_EDGE('',*,*,#224,.T.);
#46=ORIENTED_EDGE('',*,*,#225,.F.);
#47=ORIENTED_EDGE('',*,*,#226,.F.);
#48=ORIENTED_EDGE('',*,*,#213,.T.);
#49=ORIENTED_EDGE('',*,*,#227,.T.);
#50=ORIENTED_EDGE('',*,*,#228,.F.);
#51=ORIENTED_EDGE('',*,*,#229,.F.);
#52=ORIENTED_EDGE('',*,*,#230,.T.);
#53=ORIENTED_EDGE('',*,*,#231,.F.);
#54=ORIENTED_EDGE('',*,*,#232,.F.);
#55=ORIENTED_EDGE('',*,*,#233,.T.);
#56=ORIENTED_EDGE('',*,*,#234,.F.);
#57=ORIENTED_EDGE('',*,*,#235,.T.);
#58=ORIENTED_EDGE('',*,*,#236,.T.);
#59=ORIENTED_EDGE('',*,*,#237,.F.);
#60=ORIENTED_EDGE('',*,*,#238,.T.);
#61=ORIENTED_EDGE('',*,*,#239,.T.);
#62=ORIENTED_EDGE('',*,*,#240,.T.);
#63=ORIENTED_EDGE('',*,*,#241,.F.);
#64=ORIENTED_EDGE('',*,*,#242,.T.);
#65=ORIENTED_EDGE('',*,*,#243,.T.);
#66=ORIENTED_EDGE('',*,*,#244,.T.);
#67=ORIENTED_EDGE('',*,*,#245,.T.);
#68=ORIENTED_EDGE('',*,*,#246,.T.);
#69=ORIENTED_EDGE('',*,*,#247,.T.);
#70=ORIENTED_EDGE('',*,*,#248,.F.);
#71=ORIENTED_EDGE('',*,*,#249,.F.);
#72=ORIENTED_EDGE('',*,*,#250,.T.);
#73=ORIENTED_EDGE('',*,*,#251,.F.);
#74=ORIENTED_EDGE('',*,*,#252,.F.);
#75=ORIENTED_EDGE('',*,*,#253,.T.);
#76=ORIENTED_EDGE('',*,*,#254,.T.);
#77=ORIENTED_EDGE('',*,*,#255,.T.);
#78=ORIENTED_EDGE('',*,*,#256,.F.);
#79=ORIENTED_EDGE('',*,*,#211,.F.);
#80=ORIENTED_EDGE('',*,*,#257,.T.);
#81=ORIENTED_EDGE('',*,*,#258,.F.);
#82=ORIENTED_EDGE('',*,*,#252,.T.);
#83=ORIENTED_EDGE('',*,*,#259,.F.);
#84=ORIENTED_EDGE('',*,*,#235,.F.);
#85=ORIENTED_EDGE('',*,*,#260,.F.);
#86=ORIENTED_EDGE('',*,*,#261,.F.);
#87=ORIENTED_EDGE('',*,*,#262,.T.);
#88=ORIENTED_EDGE('',*,*,#251,.T.);
#89=ORIENTED_EDGE('',*,*,#263,.F.);
#90=ORIENTED_EDGE('',*,*,#236,.F.);
#91=ORIENTED_EDGE('',*,*,#259,.T.);
#92=ORIENTED_EDGE('',*,*,#250,.F.);
#93=ORIENTED_EDGE('',*,*,#264,.F.);
#94=ORIENTED_EDGE('',*,*,#237,.T.);
#95=ORIENTED_EDGE('',*,*,#263,.T.);
#96=ORIENTED_EDGE('',*,*,#249,.T.);
#97=ORIENTED_EDGE('',*,*,#265,.T.);
#98=ORIENTED_EDGE('',*,*,#220,.F.);
#99=ORIENTED_EDGE('',*,*,#266,.F.);
#100=ORIENTED_EDGE('',*,*,#267,.F.);
#101=ORIENTED_EDGE('',*,*,#268,.T.);
#102=ORIENTED_EDGE('',*,*,#238,.F.);
#103=ORIENTED_EDGE('',*,*,#264,.T.);
#104=ORIENTED_EDGE('',*,*,#256,.T.);
#105=ORIENTED_EDGE('',*,*,#269,.F.);
#106=ORIENTED_EDGE('',*,*,#227,.F.);
#107=ORIENTED_EDGE('',*,*,#212,.T.);
#108=ORIENTED_EDGE('',*,*,#255,.F.);
#109=ORIENTED_EDGE('',*,*,#270,.F.);
#110=ORIENTED_EDGE('',*,*,#228,.T.);
#111=ORIENTED_EDGE('',*,*,#269,.T.);
#112=ORIENTED_EDGE('',*,*,#254,.F.);
#113=ORIENTED_EDGE('',*,*,#271,.F.);
#114=ORIENTED_EDGE('',*,*,#272,.T.);
#115=ORIENTED_EDGE('',*,*,#273,.T.);
#116=ORIENTED_EDGE('',*,*,#229,.T.);
#117=ORIENTED_EDGE('',*,*,#270,.T.);
#118=ORIENTED_EDGE('',*,*,#253,.F.);
#119=ORIENTED_EDGE('',*,*,#262,.F.);
#120=ORIENTED_EDGE('',*,*,#274,.T.);
#121=ORIENTED_EDGE('',*,*,#275,.T.);
#122=ORIENTED_EDGE('',*,*,#232,.T.);
#123=ORIENTED_EDGE('',*,*,#276,.F.);
#124=ORIENTED_EDGE('',*,*,#277,.T.);
#125=ORIENTED_EDGE('',*,*,#271,.T.);
#126=ORIENTED_EDGE('',*,*,#234,.T.);
#127=ORIENTED_EDGE('',*,*,#278,.F.);
#128=ORIENTED_EDGE('',*,*,#279,.F.);
#129=ORIENTED_EDGE('',*,*,#260,.T.);
#130=ORIENTED_EDGE('',*,*,#233,.F.);
#131=ORIENTED_EDGE('',*,*,#275,.F.);
#132=ORIENTED_EDGE('',*,*,#280,.T.);
#133=ORIENTED_EDGE('',*,*,#278,.T.);
#134=ORIENTED_EDGE('',*,*,#281,.F.);
#135=ORIENTED_EDGE('',*,*,#261,.T.);
#136=ORIENTED_EDGE('',*,*,#279,.T.);
#137=ORIENTED_EDGE('',*,*,#280,.F.);
#138=ORIENTED_EDGE('',*,*,#274,.F.);
#139=ORIENTED_EDGE('',*,*,#226,.T.);
#140=ORIENTED_EDGE('',*,*,#282,.F.);
#141=ORIENTED_EDGE('',*,*,#283,.F.);
#142=ORIENTED_EDGE('',*,*,#214,.T.);
#143=ORIENTED_EDGE('',*,*,#225,.T.);
#144=ORIENTED_EDGE('',*,*,#284,.F.);
#145=ORIENTED_EDGE('',*,*,#285,.F.);
#146=ORIENTED_EDGE('',*,*,#282,.T.);
#147=ORIENTED_EDGE('',*,*,#224,.F.);
#148=ORIENTED_EDGE('',*,*,#216,.F.);
#149=ORIENTED_EDGE('',*,*,#286,.T.);
#150=ORIENTED_EDGE('',*,*,#284,.T.);
#151=ORIENTED_EDGE('',*,*,#287,.F.);
#152=ORIENTED_EDGE('',*,*,#215,.T.);
#153=ORIENTED_EDGE('',*,*,#283,.T.);
#154=ORIENTED_EDGE('',*,*,#285,.T.);
#155=ORIENTED_EDGE('',*,*,#286,.F.);
#156=ORIENTED_EDGE('',*,*,#239,.F.);
#157=ORIENTED_EDGE('',*,*,#268,.F.);
#158=ORIENTED_EDGE('',*,*,#288,.T.);
#159=ORIENTED_EDGE('',*,*,#289,.T.);
#160=ORIENTED_EDGE('',*,*,#241,.T.);
#161=ORIENTED_EDGE('',*,*,#290,.F.);
#162=ORIENTED_EDGE('',*,*,#291,.F.);
#163=ORIENTED_EDGE('',*,*,#266,.T.);
#164=ORIENTED_EDGE('',*,*,#240,.F.);
#165=ORIENTED_EDGE('',*,*,#289,.F.);
#166=ORIENTED_EDGE('',*,*,#292,.T.);
#167=ORIENTED_EDGE('',*,*,#290,.T.);
#168=ORIENTED_EDGE('',*,*,#293,.F.);
#169=ORIENTED_EDGE('',*,*,#288,.F.);
#170=ORIENTED_EDGE('',*,*,#267,.T.);
#171=ORIENTED_EDGE('',*,*,#291,.T.);
#172=ORIENTED_EDGE('',*,*,#292,.F.);
#173=ORIENTED_EDGE('',*,*,#230,.F.);
#174=ORIENTED_EDGE('',*,*,#273,.F.);
#175=ORIENTED_EDGE('',*,*,#294,.T.);
#176=ORIENTED_EDGE('',*,*,#295,.T.);
#177=ORIENTED_EDGE('',*,*,#231,.T.);
#178=ORIENTED_EDGE('',*,*,#295,.F.);
#179=ORIENTED_EDGE('',*,*,#296,.F.);
#180=ORIENTED_EDGE('',*,*,#276,.T.);
#181=ORIENTED_EDGE('',*,*,#297,.F.);
#182=ORIENTED_EDGE('',*,*,#294,.F.);
#183=ORIENTED_EDGE('',*,*,#272,.F.);
#184=ORIENTED_EDGE('',*,*,#277,.F.);
#185=ORIENTED_EDGE('',*,*,#296,.T.);
#186=ORIENTED_EDGE('',*,*,#242,.F.);
#187=ORIENTED_EDGE('',*,*,#219,.T.);
#188=ORIENTED_EDGE('',*,*,#243,.F.);
#189=ORIENTED_EDGE('',*,*,#218,.T.);
#190=ORIENTED_EDGE('',*,*,#247,.F.);
#191=ORIENTED_EDGE('',*,*,#297,.T.);
#192=ORIENTED_EDGE('',*,*,#246,.F.);
#193=ORIENTED_EDGE('',*,*,#293,.T.);
#194=ORIENTED_EDGE('',*,*,#245,.F.);
#195=ORIENTED_EDGE('',*,*,#287,.T.);
#196=ORIENTED_EDGE('',*,*,#244,.F.);
#197=ORIENTED_EDGE('',*,*,#281,.T.);
#198=ORIENTED_EDGE('',*,*,#221,.F.);
#199=ORIENTED_EDGE('',*,*,#265,.F.);
#200=ORIENTED_EDGE('',*,*,#248,.T.);
#201=ORIENTED_EDGE('',*,*,#298,.T.);
#202=ORIENTED_EDGE('',*,*,#223,.T.);
#203=ORIENTED_EDGE('',*,*,#299,.F.);
#204=ORIENTED_EDGE('',*,*,#257,.F.);
#205=ORIENTED_EDGE('',*,*,#210,.T.);
#206=ORIENTED_EDGE('',*,*,#222,.F.);
#207=ORIENTED_EDGE('',*,*,#298,.F.);
#208=ORIENTED_EDGE('',*,*,#258,.T.);
#209=ORIENTED_EDGE('',*,*,#299,.T.);
#210=EDGE_CURVE('',#300,#301,#364,.T.);
#211=EDGE_CURVE('',#300,#302,#365,.T.);
#212=EDGE_CURVE('',#303,#302,#366,.T.);
#213=EDGE_CURVE('',#304,#303,#367,.T.);
#214=EDGE_CURVE('',#305,#304,#368,.T.);
#215=EDGE_CURVE('',#306,#305,#369,.T.);
#216=EDGE_CURVE('',#306,#307,#370,.T.);
#217=EDGE_CURVE('',#301,#307,#371,.T.);
#218=EDGE_CURVE('',#308,#308,#18,.T.);
#219=EDGE_CURVE('',#309,#309,#19,.T.);
#220=EDGE_CURVE('',#310,#311,#372,.T.);
#221=EDGE_CURVE('',#311,#312,#373,.T.);
#222=EDGE_CURVE('',#312,#313,#374,.T.);
#223=EDGE_CURVE('',#301,#313,#375,.T.);
#224=EDGE_CURVE('',#307,#314,#376,.T.);
#225=EDGE_CURVE('',#315,#314,#377,.T.);
#226=EDGE_CURVE('',#304,#315,#378,.T.);
#227=EDGE_CURVE('',#303,#316,#379,.T.);
#228=EDGE_CURVE('',#317,#316,#380,.T.);
#229=EDGE_CURVE('',#318,#317,#381,.T.);
#230=EDGE_CURVE('',#318,#319,#382,.T.);
#231=EDGE_CURVE('',#320,#319,#383,.T.);
#232=EDGE_CURVE('',#321,#320,#384,.T.);
#233=EDGE_CURVE('',#321,#322,#385,.T.);
#234=EDGE_CURVE('',#323,#322,#386,.T.);
#235=EDGE_CURVE('',#323,#324,#387,.T.);
#236=EDGE_CURVE('',#324,#325,#388,.T.);
#237=EDGE_CURVE('',#326,#325,#389,.T.);
#238=EDGE_CURVE('',#326,#327,#390,.T.);
#239=EDGE_CURVE('',#327,#328,#391,.T.);
#240=EDGE_CURVE('',#328,#329,#392,.T.);
#241=EDGE_CURVE('',#310,#329,#393,.T.);
#242=EDGE_CURVE('',#330,#330,#20,.T.);
#243=EDGE_CURVE('',#331,#331,#21,.T.);
#244=EDGE_CURVE('',#332,#332,#22,.T.);
#245=EDGE_CURVE('',#333,#333,#23,.T.);
#246=EDGE_CURVE('',#334,#334,#24,.T.);
#247=EDGE_CURVE('',#335,#335,#25,.T.);
#248=EDGE_CURVE('',#336,#337,#394,.T.);
#249=EDGE_CURVE('',#338,#336,#395,.T.);
#250=EDGE_CURVE('',#338,#339,#396,.T.);
#251=EDGE_CURVE('',#340,#339,#397,.T.);
#252=EDGE_CURVE('',#341,#340,#398,.T.);
#253=EDGE_CURVE('',#341,#342,#399,.T.);
#254=EDGE_CURVE('',#342,#343,#400,.T.);
#255=EDGE_CURVE('',#343,#344,#401,.T.);
#256=EDGE_CURVE('',#302,#344,#402,.T.);
#257=EDGE_CURVE('',#300,#345,#403,.T.);
#258=EDGE_CURVE('',#337,#345,#404,.T.);
#259=EDGE_CURVE('',#324,#340,#405,.T.);
#260=EDGE_CURVE('',#346,#323,#406,.T.);
#261=EDGE_CURVE('',#347,#346,#407,.T.);
#262=EDGE_CURVE('',#347,#341,#408,.T.);
#263=EDGE_CURVE('',#325,#339,#409,.T.);
#264=EDGE_CURVE('',#326,#338,#410,.T.);
#265=EDGE_CURVE('',#336,#311,#411,.T.);
#266=EDGE_CURVE('',#348,#310,#412,.T.);
#267=EDGE_CURVE('',#349,#348,#413,.T.);
#268=EDGE_CURVE('',#349,#327,#414,.T.);
#269=EDGE_CURVE('',#316,#344,#415,.T.);
#270=EDGE_CURVE('',#317,#343,#416,.T.);
#271=EDGE_CURVE('',#350,#342,#417,.T.);
#272=EDGE_CURVE('',#350,#351,#418,.T.);
#273=EDGE_CURVE('',#351,#318,#419,.T.);
#274=EDGE_CURVE('',#347,#352,#420,.T.);
#275=EDGE_CURVE('',#352,#321,#421,.T.);
#276=EDGE_CURVE('',#353,#320,#422,.T.);
#277=EDGE_CURVE('',#353,#350,#423,.T.);
#278=EDGE_CURVE('',#354,#322,#424,.T.);
#279=EDGE_CURVE('',#346,#354,#425,.T.);
#280=EDGE_CURVE('',#352,#354,#426,.T.);
#281=EDGE_CURVE('',#355,#355,#26,.T.);
#282=EDGE_CURVE('',#356,#315,#427,.T.);
#283=EDGE_CURVE('',#305,#356,#428,.T.);
#284=EDGE_CURVE('',#357,#314,#429,.T.);
#285=EDGE_CURVE('',#356,#357,#430,.T.);
#286=EDGE_CURVE('',#306,#357,#431,.T.);
#287=EDGE_CURVE('',#358,#358,#27,.T.);
#288=EDGE_CURVE('',#349,#359,#432,.T.);
#289=EDGE_CURVE('',#359,#328,#433,.T.);
#290=EDGE_CURVE('',#360,#329,#434,.T.);
#291=EDGE_CURVE('',#348,#360,#435,.T.);
#292=EDGE_CURVE('',#359,#360,#436,.T.);
#293=EDGE_CURVE('',#361,#361,#28,.T.);
#294=EDGE_CURVE('',#351,#362,#437,.T.);
#295=EDGE_CURVE('',#362,#319,#438,.T.);
#296=EDGE_CURVE('',#353,#362,#439,.T.);
#297=EDGE_CURVE('',#363,#363,#29,.T.);
#298=EDGE_CURVE('',#337,#312,#440,.T.);
#299=EDGE_CURVE('',#345,#313,#441,.T.);
#300=VERTEX_POINT('',#920);
#301=VERTEX_POINT('',#921);
#302=VERTEX_POINT('',#923);
#303=VERTEX_POINT('',#925);
#304=VERTEX_POINT('',#927);
#305=VERTEX_POINT('',#929);
#306=VERTEX_POINT('',#931);
#307=VERTEX_POINT('',#933);
#308=VERTEX_POINT('',#937);
#309=VERTEX_POINT('',#939);
#310=VERTEX_POINT('',#941);
#311=VERTEX_POINT('',#942);
#312=VERTEX_POINT('',#944);
#313=VERTEX_POINT('',#946);
#314=VERTEX_POINT('',#949);
#315=VERTEX_POINT('',#951);
#316=VERTEX_POINT('',#954);
#317=VERTEX_POINT('',#956);
#318=VERTEX_POINT('',#958);
#319=VERTEX_POINT('',#960);
#320=VERTEX_POINT('',#962);
#321=VERTEX_POINT('',#964);
#322=VERTEX_POINT('',#966);
#323=VERTEX_POINT('',#968);
#324=VERTEX_POINT('',#970);
#325=VERTEX_POINT('',#972);
#326=VERTEX_POINT('',#974);
#327=VERTEX_POINT('',#976);
#328=VERTEX_POINT('',#978);
#329=VERTEX_POINT('',#980);
#330=VERTEX_POINT('',#984);
#331=VERTEX_POINT('',#986);
#332=VERTEX_POINT('',#988);
#333=VERTEX_POINT('',#990);
#334=VERTEX_POINT('',#992);
#335=VERTEX_POINT('',#994);
#336=VERTEX_POINT('',#996);
#337=VERTEX_POINT('',#997);
#338=VERTEX_POINT('',#999);
#339=VERTEX_POINT('',#1001);
#340=VERTEX_POINT('',#1003);
#341=VERTEX_POINT('',#1005);
#342=VERTEX_POINT('',#1007);
#343=VERTEX_POINT('',#1009);
#344=VERTEX_POINT('',#1011);
#345=VERTEX_POINT('',#1014);
#346=VERTEX_POINT('',#1019);
#347=VERTEX_POINT('',#1021);
#348=VERTEX_POINT('',#1030);
#349=VERTEX_POINT('',#1032);
#350=VERTEX_POINT('',#1040);
#351=VERTEX_POINT('',#1042);
#352=VERTEX_POINT('',#1046);
#353=VERTEX_POINT('',#1049);
#354=VERTEX_POINT('',#1053);
#355=VERTEX_POINT('',#1059);
#356=VERTEX_POINT('',#1062);
#357=VERTEX_POINT('',#1066);
#358=VERTEX_POINT('',#1072);
#359=VERTEX_POINT('',#1075);
#360=VERTEX_POINT('',#1079);
#361=VERTEX_POINT('',#1085);
#362=VERTEX_POINT('',#1088);
#363=VERTEX_POINT('',#1094);
#364=LINE('',#919,#442);
#365=LINE('',#922,#443);
#366=LINE('',#924,#444);
#367=LINE('',#926,#445);
#368=LINE('',#928,#446);
#369=LINE('',#930,#447);
#370=LINE('',#932,#448);
#371=LINE('',#934,#449);
#372=LINE('',#940,#450);
#373=LINE('',#943,#451);
#374=LINE('',#945,#452);
#375=LINE('',#947,#453);
#376=LINE('',#948,#454);
#377=LINE('',#950,#455);
#378=LINE('',#952,#456);
#379=LINE('',#953,#457);
#380=LINE('',#955,#458);
#381=LINE('',#957,#459);
#382=LINE('',#959,#460);
#383=LINE('',#961,#461);
#384=LINE('',#963,#462);
#385=LINE('',#965,#463);
#386=LINE('',#967,#464);
#387=LINE('',#969,#465);
#388=LINE('',#971,#466);
#389=LINE('',#973,#467);
#390=LINE('',#975,#468);
#391=LINE('',#977,#469);
#392=LINE('',#979,#470);
#393=LINE('',#981,#471);
#394=LINE('',#995,#472);
#395=LINE('',#998,#473);
#396=LINE('',#1000,#474);
#397=LINE('',#1002,#475);
#398=LINE('',#1004,#476);
#399=LINE('',#1006,#477);
#400=LINE('',#1008,#478);
#401=LINE('',#1010,#479);
#402=LINE('',#1012,#480);
#403=LINE('',#1013,#481);
#404=LINE('',#1015,#482);
#405=LINE('',#1017,#483);
#406=LINE('',#1018,#484);
#407=LINE('',#1020,#485);
#408=LINE('',#1022,#486);
#409=LINE('',#1024,#487);
#410=LINE('',#1026,#488);
#411=LINE('',#1028,#489);
#412=LINE('',#1029,#490);
#413=LINE('',#1031,#491);
#414=LINE('',#1033,#492);
#415=LINE('',#1035,#493);
#416=LINE('',#1037,#494);
#417=LINE('',#1039,#495);
#418=LINE('',#1041,#496);
#419=LINE('',#1043,#497);
#420=LINE('',#1045,#498);
#421=LINE('',#1047,#499);
#422=LINE('',#1048,#500);
#423=LINE('',#1050,#501);
#424=LINE('',#1052,#502);
#425=LINE('',#1054,#503);
#426=LINE('',#1056,#504);
#427=LINE('',#1061,#505);
#428=LINE('',#1063,#506);
#429=LINE('',#1065,#507);
#430=LINE('',#1067,#508);
#431=LINE('',#1069,#509);
#432=LINE('',#1074,#510);
#433=LINE('',#1076,#511);
#434=LINE('',#1078,#512);
#435=LINE('',#1080,#513);
#436=LINE('',#1082,#514);
#437=LINE('',#1087,#515);
#438=LINE('',#1089,#516);
#439=LINE('',#1091,#517);
#440=LINE('',#1102,#518);
#441=LINE('',#1104,#519);
#442=VECTOR('',#749,1.);
#443=VECTOR('',#750,1.);
#444=VECTOR('',#751,1.);
#445=VECTOR('',#752,1.);
#446=VECTOR('',#753,1.);
#447=VECTOR('',#754,1.);
#448=VECTOR('',#755,1.);
#449=VECTOR('',#756,1.);
#450=VECTOR('',#763,1.);
#451=VECTOR('',#764,1.);
#452=VECTOR('',#765,1.);
#453=VECTOR('',#766,1.);
#454=VECTOR('',#767,1.);
#455=VECTOR('',#768,1.);
#456=VECTOR('',#769,1.);
#457=VECTOR('',#770,1.);
#458=VECTOR('',#771,1.);
#459=VECTOR('',#772,1.);
#460=VECTOR('',#773,1.);
#461=VECTOR('',#774,1.);
#462=VECTOR('',#775,1.);
#463=VECTOR('',#776,1.);
#464=VECTOR('',#777,1.);
#465=VECTOR('',#778,1.);
#466=VECTOR('',#779,1.);
#467=VECTOR('',#780,1.);
#468=VECTOR('',#781,1.);
#469=VECTOR('',#782,1.);
#470=VECTOR('',#783,1.);
#471=VECTOR('',#784,1.);
#472=VECTOR('',#799,1.);
#473=VECTOR('',#800,1.);
#474=VECTOR('',#801,1.);
#475=VECTOR('',#802,1.);
#476=VECTOR('',#803,1.);
#477=VECTOR('',#804,1.);
#478=VECTOR('',#805,1.);
#479=VECTOR('',#806,1.);
#480=VECTOR('',#807,1.);
#481=VECTOR('',#808,1.);
#482=VECTOR('',#809,1.);
#483=VECTOR('',#812,1.);
#484=VECTOR('',#813,1.);
#485=VECTOR('',#814,1.);
#486=VECTOR('',#815,1.);
#487=VECTOR('',#818,1.);
#488=VECTOR('',#821,1.);
#489=VECTOR('',#824,1.);
#490=VECTOR('',#825,1.);
#491=VECTOR('',#826,1.);
#492=VECTOR('',#827,1.);
#493=VECTOR('',#830,1.);
#494=VECTOR('',#833,1.);
#495=VECTOR('',#836,1.);
#496=VECTOR('',#837,1.);
#497=VECTOR('',#838,1.);
#498=VECTOR('',#841,1.);
#499=VECTOR('',#842,1.);
#500=VECTOR('',#843,1.);
#501=VECTOR('',#844,1.);
#502=VECTOR('',#847,1.);
#503=VECTOR('',#848,1.);
#504=VECTOR('',#851,1.);
#505=VECTOR('',#858,1.);
#506=VECTOR('',#859,1.);
#507=VECTOR('',#862,1.);
#508=VECTOR('',#863,1.);
#509=VECTOR('',#866,1.);
#510=VECTOR('',#873,1.);
#511=VECTOR('',#874,1.);
#512=VECTOR('',#877,1.);
#513=VECTOR('',#878,1.);
#514=VECTOR('',#881,1.);
#515=VECTOR('',#888,1.);
#516=VECTOR('',#889,1.);
#517=VECTOR('',#892,1.);
#518=VECTOR('',#911,1.);
#519=VECTOR('',#914,1.);
#520=EDGE_LOOP('',(#30,#31,#32,#33,#34,#35,#36,#37));
#521=EDGE_LOOP('',(#38));
#522=EDGE_LOOP('',(#39));
#523=EDGE_LOOP('',(#40,#41,#42,#43,#44,#45,#46,#47,#48,#49,#50,#51,#52,
#53,#54,#55,#56,#57,#58,#59,#60,#61,#62,#63));
#524=EDGE_LOOP('',(#64));
#525=EDGE_LOOP('',(#65));
#526=EDGE_LOOP('',(#66));
#527=EDGE_LOOP('',(#67));
#528=EDGE_LOOP('',(#68));
#529=EDGE_LOOP('',(#69));
#530=EDGE_LOOP('',(#70,#71,#72,#73,#74,#75,#76,#77,#78,#79,#80,#81));
#531=EDGE_LOOP('',(#82,#83,#84,#85,#86,#87));
#532=EDGE_LOOP('',(#88,#89,#90,#91));
#533=EDGE_LOOP('',(#92,#93,#94,#95));
#534=EDGE_LOOP('',(#96,#97,#98,#99,#100,#101,#102,#103));
#535=EDGE_LOOP('',(#104,#105,#106,#107));
#536=EDGE_LOOP('',(#108,#109,#110,#111));
#537=EDGE_LOOP('',(#112,#113,#114,#115,#116,#117));
#538=EDGE_LOOP('',(#118,#119,#120,#121,#122,#123,#124,#125));
#539=EDGE_LOOP('',(#126,#127,#128,#129));
#540=EDGE_LOOP('',(#130,#131,#132,#133));
#541=EDGE_LOOP('',(#134));
#542=EDGE_LOOP('',(#135,#136,#137,#138));
#543=EDGE_LOOP('',(#139,#140,#141,#142));
#544=EDGE_LOOP('',(#143,#144,#145,#146));
#545=EDGE_LOOP('',(#147,#148,#149,#150));
#546=EDGE_LOOP('',(#151));
#547=EDGE_LOOP('',(#152,#153,#154,#155));
#548=EDGE_LOOP('',(#156,#157,#158,#159));
#549=EDGE_LOOP('',(#160,#161,#162,#163));
#550=EDGE_LOOP('',(#164,#165,#166,#167));
#551=EDGE_LOOP('',(#168));
#552=EDGE_LOOP('',(#169,#170,#171,#172));
#553=EDGE_LOOP('',(#173,#174,#175,#176));
#554=EDGE_LOOP('',(#177,#178,#179,#180));
#555=EDGE_LOOP('',(#181));
#556=EDGE_LOOP('',(#182,#183,#184,#185));
#557=EDGE_LOOP('',(#186));
#558=EDGE_LOOP('',(#187));
#559=EDGE_LOOP('',(#188));
#560=EDGE_LOOP('',(#189));
#561=EDGE_LOOP('',(#190));
#562=EDGE_LOOP('',(#191));
#563=EDGE_LOOP('',(#192));
#564=EDGE_LOOP('',(#193));
#565=EDGE_LOOP('',(#194));
#566=EDGE_LOOP('',(#195));
#567=EDGE_LOOP('',(#196));
#568=EDGE_LOOP('',(#197));
#569=EDGE_LOOP('',(#198,#199,#200,#201));
#570=EDGE_LOOP('',(#202,#203,#204,#205));
#571=EDGE_LOOP('',(#206,#207,#208,#209));
#572=FACE_BOUND('',#520,.T.);
#573=FACE_BOUND('',#521,.T.);
#574=FACE_BOUND('',#522,.T.);
#575=FACE_BOUND('',#523,.T.);
#576=FACE_BOUND('',#524,.T.);
#577=FACE_BOUND('',#525,.T.);
#578=FACE_BOUND('',#526,.T.);
#579=FACE_BOUND('',#527,.T.);
#580=FACE_BOUND('',#528,.T.);
#581=FACE_BOUND('',#529,.T.);
#582=FACE_BOUND('',#530,.T.);
#583=FACE_BOUND('',#531,.T.);
#584=FACE_BOUND('',#532,.T.);
#585=FACE_BOUND('',#533,.T.);
#586=FACE_BOUND('',#534,.T.);
#587=FACE_BOUND('',#535,.T.);
#588=FACE_BOUND('',#536,.T.);
#589=FACE_BOUND('',#537,.T.);
#590=FACE_BOUND('',#538,.T.);
#591=FACE_BOUND('',#539,.T.);
#592=FACE_BOUND('',#540,.T.);
#593=FACE_BOUND('',#541,.T.);
#594=FACE_BOUND('',#542,.T.);
#595=FACE_BOUND('',#543,.T.);
#596=FACE_BOUND('',#544,.T.);
#597=FACE_BOUND('',#545,.T.);
#598=FACE_BOUND('',#546,.T.);
#599=FACE_BOUND('',#547,.T.);
#600=FACE_BOUND('',#548,.T.);
#601=FACE_BOUND('',#549,.T.);
#602=FACE_BOUND('',#550,.T.);
#603=FACE_BOUND('',#551,.T.);
#604=FACE_BOUND('',#552,.T.);
#605=FACE_BOUND('',#553,.T.);
#606=FACE_BOUND('',#554,.T.);
#607=FACE_BOUND('',#555,.T.);
#608=FACE_BOUND('',#556,.T.);
#609=FACE_BOUND('',#557,.T.);
#610=FACE_BOUND('',#558,.T.);
#611=FACE_BOUND('',#559,.T.);
#612=FACE_BOUND('',#560,.T.);
#613=FACE_BOUND('',#561,.T.);
#614=FACE_BOUND('',#562,.T.);
#615=FACE_BOUND('',#563,.T.);
#616=FACE_BOUND('',#564,.T.);
#617=FACE_BOUND('',#565,.T.);
#618=FACE_BOUND('',#566,.T.);
#619=FACE_BOUND('',#567,.T.);
#620=FACE_BOUND('',#568,.T.);
#621=FACE_BOUND('',#569,.T.);
#622=FACE_BOUND('',#570,.T.);
#623=FACE_BOUND('',#571,.T.);
#624=PLANE('',#699);
#625=PLANE('',#700);
#626=PLANE('',#703);
#627=PLANE('',#710);
#628=PLANE('',#711);
#629=PLANE('',#712);
#630=PLANE('',#713);
#631=PLANE('',#714);
#632=PLANE('',#715);
#633=PLANE('',#716);
#634=PLANE('',#717);
#635=PLANE('',#718);
#636=PLANE('',#719);
#637=PLANE('',#720);
#638=PLANE('',#722);
#639=PLANE('',#723);
#640=PLANE('',#724);
#641=PLANE('',#725);
#642=PLANE('',#727);
#643=PLANE('',#728);
#644=PLANE('',#729);
#645=PLANE('',#730);
#646=PLANE('',#732);
#647=PLANE('',#733);
#648=PLANE('',#734);
#649=PLANE('',#742);
#650=PLANE('',#743);
#651=PLANE('',#744);
#652=ADVANCED_FACE('',(#572),#624,.F.);
#653=ADVANCED_FACE('',(#573,#574,#575),#625,.T.);
#654=ADVANCED_FACE('',(#576,#577,#578,#579,#580,#581,#582),#626,.F.);
#655=ADVANCED_FACE('',(#583),#627,.F.);
#656=ADVANCED_FACE('',(#584),#628,.F.);
#657=ADVANCED_FACE('',(#585),#629,.T.);
#658=ADVANCED_FACE('',(#586),#630,.F.);
#659=ADVANCED_FACE('',(#587),#631,.F.);
#660=ADVANCED_FACE('',(#588),#632,.T.);
#661=ADVANCED_FACE('',(#589),#633,.T.);
#662=ADVANCED_FACE('',(#590),#634,.T.);
#663=ADVANCED_FACE('',(#591),#635,.F.);
#664=ADVANCED_FACE('',(#592),#636,.T.);
#665=ADVANCED_FACE('',(#593,#594),#637,.T.);
#666=ADVANCED_FACE('',(#595),#638,.F.);
#667=ADVANCED_FACE('',(#596),#639,.F.);
#668=ADVANCED_FACE('',(#597),#640,.T.);
#669=ADVANCED_FACE('',(#598,#599),#641,.T.);
#670=ADVANCED_FACE('',(#600),#642,.T.);
#671=ADVANCED_FACE('',(#601),#643,.F.);
#672=ADVANCED_FACE('',(#602),#644,.T.);
#673=ADVANCED_FACE('',(#603,#604),#645,.T.);
#674=ADVANCED_FACE('',(#605),#646,.T.);
#675=ADVANCED_FACE('',(#606),#647,.F.);
#676=ADVANCED_FACE('',(#607,#608),#648,.T.);
#677=ADVANCED_FACE('',(#609,#610),#12,.F.);
#678=ADVANCED_FACE('',(#611,#612),#13,.F.);
#679=ADVANCED_FACE('',(#613,#614),#14,.F.);
#680=ADVANCED_FACE('',(#615,#616),#15,.F.);
#681=ADVANCED_FACE('',(#617,#618),#16,.F.);
#682=ADVANCED_FACE('',(#619,#620),#17,.F.);
#683=ADVANCED_FACE('',(#621),#649,.T.);
#684=ADVANCED_FACE('',(#622),#650,.F.);
#685=ADVANCED_FACE('',(#623),#651,.T.);
#686=CLOSED_SHELL('',(#652,#653,#654,#655,#656,#657,#658,#659,#660,#661,
#662,#663,#664,#665,#666,#667,#668,#669,#670,#671,#672,#673,#674,#675,#676,
#677,#678,#679,#680,#681,#682,#683,#684,#685));
#687=STYLED_ITEM('',(#688),#695);
#688=PRESENTATION_STYLE_ASSIGNMENT((#689));
#689=SURFACE_STYLE_USAGE(.BOTH.,#690);
#690=SURFACE_SIDE_STYLE('',(#691));
#691=SURFACE_STYLE_FILL_AREA(#692);
#692=FILL_AREA_STYLE('',(#693));
#693=FILL_AREA_STYLE_COLOUR('',#694);
#694=COLOUR_RGB('',0.615686274509804,0.811764705882353,0.929411764705882);
#695=MANIFOLD_SOLID_BREP('Part 1',#686);
#696=SHAPE_DEFINITION_REPRESENTATION(#1112,#697);
#697=SHAPE_REPRESENTATION('Part 1',(#698),#1107);
#698=AXIS2_PLACEMENT_3D('',#917,#745,#746);
#699=AXIS2_PLACEMENT_3D('',#918,#747,#748);
#700=AXIS2_PLACEMENT_3D('',#935,#757,#758);
#701=AXIS2_PLACEMENT_3D('',#936,#759,#760);
#702=AXIS2_PLACEMENT_3D('',#938,#761,#762);
#703=AXIS2_PLACEMENT_3D('',#982,#785,#786);
#704=AXIS2_PLACEMENT_3D('',#983,#787,#788);
#705=AXIS2_PLACEMENT_3D('',#985,#789,#790);
#706=AXIS2_PLACEMENT_3D('',#987,#791,#792);
#707=AXIS2_PLACEMENT_3D('',#989,#793,#794);
#708=AXIS2_PLACEMENT_3D('',#991,#795,#796);
#709=AXIS2_PLACEMENT_3D('',#993,#797,#798);
#710=AXIS2_PLACEMENT_3D('',#1016,#810,#811);
#711=AXIS2_PLACEMENT_3D('',#1023,#816,#817);
#712=AXIS2_PLACEMENT_3D('',#1025,#819,#820);
#713=AXIS2_PLACEMENT_3D('',#1027,#822,#823);
#714=AXIS2_PLACEMENT_3D('',#1034,#828,#829);
#715=AXIS2_PLACEMENT_3D('',#1036,#831,#832);
#716=AXIS2_PLACEMENT_3D('',#1038,#834,#835);
#717=AXIS2_PLACEMENT_3D('',#1044,#839,#840);
#718=AXIS2_PLACEMENT_3D('',#1051,#845,#846);
#719=AXIS2_PLACEMENT_3D('',#1055,#849,#850);
#720=AXIS2_PLACEMENT_3D('',#1057,#852,#853);
#721=AXIS2_PLACEMENT_3D('',#1058,#854,#855);
#722=AXIS2_PLACEMENT_3D('',#1060,#856,#857);
#723=AXIS2_PLACEMENT_3D('',#1064,#860,#861);
#724=AXIS2_PLACEMENT_3D('',#1068,#864,#865);
#725=AXIS2_PLACEMENT_3D('',#1070,#867,#868);
#726=AXIS2_PLACEMENT_3D('',#1071,#869,#870);
#727=AXIS2_PLACEMENT_3D('',#1073,#871,#872);
#728=AXIS2_PLACEMENT_3D('',#1077,#875,#876);
#729=AXIS2_PLACEMENT_3D('',#1081,#879,#880);
#730=AXIS2_PLACEMENT_3D('',#1083,#882,#883);
#731=AXIS2_PLACEMENT_3D('',#1084,#884,#885);
#732=AXIS2_PLACEMENT_3D('',#1086,#886,#887);
#733=AXIS2_PLACEMENT_3D('',#1090,#890,#891);
#734=AXIS2_PLACEMENT_3D('',#1092,#893,#894);
#735=AXIS2_PLACEMENT_3D('',#1093,#895,#896);
#736=AXIS2_PLACEMENT_3D('',#1095,#897,#898);
#737=AXIS2_PLACEMENT_3D('',#1096,#899,#900);
#738=AXIS2_PLACEMENT_3D('',#1097,#901,#902);
#739=AXIS2_PLACEMENT_3D('',#1098,#903,#904);
#740=AXIS2_PLACEMENT_3D('',#1099,#905,#906);
#741=AXIS2_PLACEMENT_3D('',#1100,#907,#908);
#742=AXIS2_PLACEMENT_3D('',#1101,#909,#910);
#743=AXIS2_PLACEMENT_3D('',#1103,#912,#913);
#744=AXIS2_PLACEMENT_3D('',#1105,#915,#916);
#745=DIRECTION('',(0.,0.,1.));
#746=DIRECTION('',(1.,0.,0.));
#747=DIRECTION('',(0.,1.,0.));
#748=DIRECTION('',(0.,0.,1.));
#749=DIRECTION('',(0.,0.,1.));
#750=DIRECTION('',(1.,0.,0.));
#751=DIRECTION('',(0.,0.,-1.));
#752=DIRECTION('',(1.,0.,0.));
#753=DIRECTION('',(0.,0.,-1.));
#754=DIRECTION('',(1.,0.,0.));
#755=DIRECTION('',(0.,0.,-1.));
#756=DIRECTION('',(1.,0.,0.));
#757=DIRECTION('',(0.,0.,1.));
#758=DIRECTION('',(1.,0.,0.));
#759=DIRECTION('',(0.,0.,1.));
#760=DIRECTION('',(1.,0.,0.));
#761=DIRECTION('',(0.,0.,1.));
#762=DIRECTION('',(1.,0.,0.));
#763=DIRECTION('',(1.,0.,0.));
#764=DIRECTION('',(0.,1.,0.));
#765=DIRECTION('',(1.,0.,0.));
#766=DIRECTION('',(0.,1.,0.));
#767=DIRECTION('',(-2.16840434497101E-16,1.,0.));
#768=DIRECTION('',(-1.,0.,0.));
#769=DIRECTION('',(0.,1.,0.));
#770=DIRECTION('',(0.,1.,0.));
#771=DIRECTION('',(1.,0.,0.));
#772=DIRECTION('',(0.,-1.,0.));
#773=DIRECTION('',(-1.,0.,0.));
#774=DIRECTION('',(2.16840434497101E-16,-1.,0.));
#775=DIRECTION('',(1.,0.,0.));
#776=DIRECTION('',(0.,-1.,0.));
#777=DIRECTION('',(1.,0.,0.));
#778=DIRECTION('',(0.,-1.,0.));
#779=DIRECTION('',(-1.,0.,0.));
#780=DIRECTION('',(0.,1.,0.));
#781=DIRECTION('',(1.,0.,0.));
#782=DIRECTION('',(0.,1.,0.));
#783=DIRECTION('',(1.,0.,0.));
#784=DIRECTION('',(0.,1.,0.));
#785=DIRECTION('',(0.,0.,1.));
#786=DIRECTION('',(1.,0.,0.));
#787=DIRECTION('',(0.,0.,1.));
#788=DIRECTION('',(1.,0.,0.));
#789=DIRECTION('',(0.,0.,1.));
#790=DIRECTION('',(1.,0.,0.));
#791=DIRECTION('',(0.,0.,1.));
#792=DIRECTION('',(1.,0.,0.));
#793=DIRECTION('',(0.,0.,1.));
#794=DIRECTION('',(1.,0.,0.));
#795=DIRECTION('',(0.,0.,1.));
#796=DIRECTION('',(1.,0.,0.));
#797=DIRECTION('',(0.,0.,1.));
#798=DIRECTION('',(1.,0.,0.));
#799=DIRECTION('',(0.,1.,0.));
#800=DIRECTION('',(1.,0.,0.));
#801=DIRECTION('',(0.,1.,0.));
#802=DIRECTION('',(-1.,0.,0.));
#803=DIRECTION('',(0.,-1.,0.));
#804=DIRECTION('',(1.,0.,0.));
#805=DIRECTION('',(0.,-1.,0.));
#806=DIRECTION('',(1.,0.,0.));
#807=DIRECTION('',(0.,1.,0.));
#808=DIRECTION('',(0.,1.,0.));
#809=DIRECTION('',(1.,0.,0.));
#810=DIRECTION('',(1.,0.,0.));
#811=DIRECTION('',(0.,0.,-1.));
#812=DIRECTION('',(0.,0.,-1.));
#813=DIRECTION('',(0.,0.,-1.));
#814=DIRECTION('',(0.,-1.,0.));
#815=DIRECTION('',(0.,0.,-1.));
#816=DIRECTION('',(0.,-1.,0.));
#817=DIRECTION('',(0.,0.,-1.));
#818=DIRECTION('',(0.,0.,-1.));
#819=DIRECTION('',(-1.,0.,0.));
#820=DIRECTION('',(0.,0.,1.));
#821=DIRECTION('',(0.,0.,-1.));
#822=DIRECTION('',(0.,1.,0.));
#823=DIRECTION('',(0.,0.,1.));
#824=DIRECTION('',(0.,0.,1.));
#825=DIRECTION('',(0.,0.,-1.));
#826=DIRECTION('',(1.,0.,0.));
#827=DIRECTION('',(0.,0.,-1.));
#828=DIRECTION('',(-1.,0.,0.));
#829=DIRECTION('',(0.,0.,1.));
#830=DIRECTION('',(0.,0.,-1.));
#831=DIRECTION('',(0.,1.,0.));
#832=DIRECTION('',(0.,0.,1.));
#833=DIRECTION('',(0.,0.,-1.));
#834=DIRECTION('',(1.,0.,0.));
#835=DIRECTION('',(0.,0.,-1.));
#836=DIRECTION('',(0.,0.,-1.));
#837=DIRECTION('',(0.,-1.,0.));
#838=DIRECTION('',(0.,0.,-1.));
#839=DIRECTION('',(0.,1.,0.));
#840=DIRECTION('',(0.,0.,1.));
#841=DIRECTION('',(1.,0.,0.));
#842=DIRECTION('',(0.,0.,-1.));
#843=DIRECTION('',(0.,0.,-1.));
#844=DIRECTION('',(1.,0.,0.));
#845=DIRECTION('',(0.,1.,0.));
#846=DIRECTION('',(0.,0.,1.));
#847=DIRECTION('',(0.,0.,-1.));
#848=DIRECTION('',(1.,0.,0.));
#849=DIRECTION('',(1.,0.,0.));
#850=DIRECTION('',(0.,0.,-1.));
#851=DIRECTION('',(0.,-1.,0.));
#852=DIRECTION('',(0.,0.,1.));
#853=DIRECTION('',(1.,0.,0.));
#854=DIRECTION('',(0.,0.,1.));
#855=DIRECTION('',(1.,0.,0.));
#856=DIRECTION('',(-1.,0.,0.));
#857=DIRECTION('',(0.,0.,1.));
#858=DIRECTION('',(0.,0.,-1.));
#859=DIRECTION('',(0.,1.,0.));
#860=DIRECTION('',(0.,-1.,0.));
#861=DIRECTION('',(0.,0.,-1.));
#862=DIRECTION('',(0.,0.,-1.));
#863=DIRECTION('',(-1.,0.,0.));
#864=DIRECTION('',(-1.,-2.16840434497101E-16,0.));
#865=DIRECTION('',(2.16840434497101E-16,-1.,0.));
#866=DIRECTION('',(-2.16840434497101E-16,1.,0.));
#867=DIRECTION('',(0.,0.,1.));
#868=DIRECTION('',(1.,0.,0.));
#869=DIRECTION('',(0.,0.,1.));
#870=DIRECTION('',(1.,0.,0.));
#871=DIRECTION('',(-1.,0.,0.));
#872=DIRECTION('',(0.,0.,1.));
#873=DIRECTION('',(0.,1.,0.));
#874=DIRECTION('',(0.,0.,-1.));
#875=DIRECTION('',(-1.,0.,0.));
#876=DIRECTION('',(0.,0.,1.));
#877=DIRECTION('',(0.,0.,-1.));
#878=DIRECTION('',(0.,1.,0.));
#879=DIRECTION('',(0.,1.,0.));
#880=DIRECTION('',(0.,0.,1.));
#881=DIRECTION('',(1.,0.,0.));
#882=DIRECTION('',(0.,0.,1.));
#883=DIRECTION('',(1.,0.,0.));
#884=DIRECTION('',(0.,0.,1.));
#885=DIRECTION('',(1.,0.,0.));
#886=DIRECTION('',(0.,-1.,0.));
#887=DIRECTION('',(0.,0.,-1.));
#888=DIRECTION('',(-1.,0.,0.));
#889=DIRECTION('',(0.,0.,-1.));
#890=DIRECTION('',(1.,2.16840434497101E-16,0.));
#891=DIRECTION('',(-2.16840434497101E-16,1.,0.));
#892=DIRECTION('',(2.16840434497101E-16,-1.,0.));
#893=DIRECTION('',(0.,0.,1.));
#894=DIRECTION('',(1.,0.,0.));
#895=DIRECTION('',(0.,0.,1.));
#896=DIRECTION('',(1.,0.,0.));
#897=DIRECTION('',(0.,0.,1.));
#898=DIRECTION('',(1.,0.,0.));
#899=DIRECTION('',(0.,0.,1.));
#900=DIRECTION('',(1.,0.,0.));
#901=DIRECTION('',(0.,0.,1.));
#902=DIRECTION('',(1.,0.,0.));
#903=DIRECTION('',(0.,0.,1.));
#904=DIRECTION('',(1.,0.,0.));
#905=DIRECTION('',(0.,0.,1.));
#906=DIRECTION('',(1.,0.,0.));
#907=DIRECTION('',(0.,0.,1.));
#908=DIRECTION('',(1.,0.,0.));
#909=DIRECTION('',(1.,0.,0.));
#910=DIRECTION('',(0.,0.,-1.));
#911=DIRECTION('',(0.,0.,1.));
#912=DIRECTION('',(1.,0.,0.));
#913=DIRECTION('',(0.,0.,-1.));
#914=DIRECTION('',(0.,0.,1.));
#915=DIRECTION('',(0.,-1.,0.));
#916=DIRECTION('',(0.,0.,-1.));
#917=CARTESIAN_POINT('',(0.,0.,0.));
#918=CARTESIAN_POINT('',(-0.00917654802277684,-0.0196993768495728,0.002));
#919=CARTESIAN_POINT('',(-0.00167654802277684,-0.0196993768495728,0.));
#920=CARTESIAN_POINT('',(-0.00167654802277684,-0.0196993768495728,0.));
#921=CARTESIAN_POINT('',(-0.00167654802277684,-0.0196993768495728,0.002));
#922=CARTESIAN_POINT('',(-0.00917654802277684,-0.0196993768495728,0.));
#923=CARTESIAN_POINT('',(0.0168234519772231,-0.0196993768495728,0.));
#924=CARTESIAN_POINT('',(0.0168234519772231,-0.0196993768495728,0.002));
#925=CARTESIAN_POINT('',(0.0168234519772231,-0.0196993768495728,0.002));
#926=CARTESIAN_POINT('',(-0.00917654802277684,-0.0196993768495728,0.002));
#927=CARTESIAN_POINT('',(0.00982345197722316,-0.0196993768495728,0.002));
#928=CARTESIAN_POINT('',(0.00982345197722316,-0.0196993768495728,0.005));
#929=CARTESIAN_POINT('',(0.00982345197722316,-0.0196993768495728,0.005));
#930=CARTESIAN_POINT('',(-0.00917654802277684,-0.0196993768495728,0.005));
#931=CARTESIAN_POINT('',(0.00582345197722316,-0.0196993768495728,0.005));
#932=CARTESIAN_POINT('',(0.00582345197722316,-0.0196993768495728,0.005));
#933=CARTESIAN_POINT('',(0.00582345197722316,-0.0196993768495728,0.002));
#934=CARTESIAN_POINT('',(-0.00917654802277684,-0.0196993768495728,0.002));
#935=CARTESIAN_POINT('',(-0.00917654802277684,-0.000699376849572747,0.002));
#936=CARTESIAN_POINT('',(-0.0316765480227768,-0.0161993768495728,0.002));
#937=CARTESIAN_POINT('',(-0.0299265480227768,-0.0161993768495728,0.002));
#938=CARTESIAN_POINT('',(0.0133234519772232,-0.0161993768495728,0.002));
#939=CARTESIAN_POINT('',(0.0150734519772232,-0.0161993768495728,0.002));
#940=CARTESIAN_POINT('',(-0.00917654802277684,-0.0196993768495728,0.002));
#941=CARTESIAN_POINT('',(-0.0241765480227768,-0.0196993768495728,0.002));
#942=CARTESIAN_POINT('',(-0.0166765480227769,-0.0196993768495728,0.002));
#943=CARTESIAN_POINT('',(-0.0166765480227769,-0.0156993768495727,0.002));
#944=CARTESIAN_POINT('',(-0.0166765480227769,-0.0116993768495727,0.002));
#945=CARTESIAN_POINT('',(-0.00917654802277684,-0.0116993768495727,0.002));
#946=CARTESIAN_POINT('',(-0.00167654802277684,-0.0116993768495727,0.002));
#947=CARTESIAN_POINT('',(-0.00167654802277684,-0.0156993768495727,0.002));
#948=CARTESIAN_POINT('',(0.00582345197722316,-0.0176993768495727,0.002));
#949=CARTESIAN_POINT('',(0.00582345197722316,-0.0156993768495727,0.002));
#950=CARTESIAN_POINT('',(0.00782345197722316,-0.0156993768495727,0.002));
#951=CARTESIAN_POINT('',(0.00982345197722316,-0.0156993768495727,0.002));
#952=CARTESIAN_POINT('',(0.00982345197722316,-0.0176993768495727,0.002));
#953=CARTESIAN_POINT('',(0.0168234519772231,-0.0161993768495728,0.002));
#954=CARTESIAN_POINT('',(0.0168234519772231,-0.0126993768495727,0.002));
#955=CARTESIAN_POINT('',(0.0133234519772231,-0.0126993768495727,0.002));
#956=CARTESIAN_POINT('',(0.00982345197722316,-0.0126993768495727,0.002));
#957=CARTESIAN_POINT('',(0.00982345197722316,0.00280062315042725,0.002));
#958=CARTESIAN_POINT('',(0.00982345197722316,0.0143006231504272,0.002));
#959=CARTESIAN_POINT('',(0.00782345197722315,0.0143006231504272,0.002));
#960=CARTESIAN_POINT('',(0.00582345197722315,0.0143006231504272,0.002));
#961=CARTESIAN_POINT('',(0.00582345197722315,0.0163006231504272,0.002));
#962=CARTESIAN_POINT('',(0.00582345197722315,0.0183006231504272,0.002));
#963=CARTESIAN_POINT('',(-0.00917654802277685,0.0183006231504272,0.002));
#964=CARTESIAN_POINT('',(-0.0241765480227768,0.0183006231504272,0.002));
#965=CARTESIAN_POINT('',(-0.0241765480227768,0.0163006231504272,0.002));
#966=CARTESIAN_POINT('',(-0.0241765480227768,0.0143006231504272,0.002));
#967=CARTESIAN_POINT('',(-0.0261765480227769,0.0143006231504272,0.002));
#968=CARTESIAN_POINT('',(-0.0281765480227768,0.0143006231504272,0.002));
#969=CARTESIAN_POINT('',(-0.0281765480227768,0.00280062315042726,0.002));
#970=CARTESIAN_POINT('',(-0.0281765480227768,-0.0126993768495727,0.002));
#971=CARTESIAN_POINT('',(-0.0316765480227768,-0.0126993768495727,0.002));
#972=CARTESIAN_POINT('',(-0.0351765480227769,-0.0126993768495727,0.002));
#973=CARTESIAN_POINT('',(-0.0351765480227769,-0.0161993768495728,0.002));
#974=CARTESIAN_POINT('',(-0.0351765480227769,-0.0196993768495728,0.002));
#975=CARTESIAN_POINT('',(-0.00917654802277684,-0.0196993768495728,0.002));
#976=CARTESIAN_POINT('',(-0.0281765480227768,-0.0196993768495728,0.002));
#977=CARTESIAN_POINT('',(-0.0281765480227768,-0.0176993768495727,0.002));
#978=CARTESIAN_POINT('',(-0.0281765480227768,-0.0156993768495727,0.002));
#979=CARTESIAN_POINT('',(-0.0261765480227769,-0.0156993768495727,0.002));
#980=CARTESIAN_POINT('',(-0.0241765480227768,-0.0156993768495727,0.002));
#981=CARTESIAN_POINT('',(-0.0241765480227768,-0.0176993768495727,0.002));
#982=CARTESIAN_POINT('',(-0.00917654802277684,-0.000699376849572747,0.));
#983=CARTESIAN_POINT('',(0.0133234519772232,-0.0161993768495728,0.));
#984=CARTESIAN_POINT('',(0.0150734519772232,-0.0161993768495728,0.));
#985=CARTESIAN_POINT('',(-0.0316765480227768,-0.0161993768495728,0.));
#986=CARTESIAN_POINT('',(-0.0299265480227768,-0.0161993768495728,0.));
#987=CARTESIAN_POINT('',(-0.0261765480227769,0.0163006231504272,0.));
#988=CARTESIAN_POINT('',(-0.0249265480227768,0.0163006231504272,0.));
#989=CARTESIAN_POINT('',(0.00782345197722316,-0.0176993768495727,0.));
#990=CARTESIAN_POINT('',(0.00907345197722316,-0.0176993768495727,0.));
#991=CARTESIAN_POINT('',(-0.0261765480227769,-0.0176993768495727,0.));
#992=CARTESIAN_POINT('',(-0.0249265480227768,-0.0176993768495727,0.));
#993=CARTESIAN_POINT('',(0.00782345197722315,0.0163006231504272,0.));
#994=CARTESIAN_POINT('',(0.00907345197722315,0.0163006231504272,0.));
#995=CARTESIAN_POINT('',(-0.0166765480227769,-0.0156993768495727,0.));
#996=CARTESIAN_POINT('',(-0.0166765480227769,-0.0196993768495728,0.));
#997=CARTESIAN_POINT('',(-0.0166765480227769,-0.0116993768495727,0.));
#998=CARTESIAN_POINT('',(-0.00917654802277684,-0.0196993768495728,0.));
#999=CARTESIAN_POINT('',(-0.0351765480227769,-0.0196993768495728,0.));
#1000=CARTESIAN_POINT('',(-0.0351765480227769,-0.0161993768495728,0.));
#1001=CARTESIAN_POINT('',(-0.0351765480227769,-0.0126993768495727,0.));
#1002=CARTESIAN_POINT('',(-0.0316765480227768,-0.0126993768495727,0.));
#1003=CARTESIAN_POINT('',(-0.0281765480227768,-0.0126993768495727,0.));
#1004=CARTESIAN_POINT('',(-0.0281765480227768,0.00280062315042726,0.));
#1005=CARTESIAN_POINT('',(-0.0281765480227768,0.0183006231504272,0.));
#1006=CARTESIAN_POINT('',(-0.00917654802277685,0.0183006231504272,0.));
#1007=CARTESIAN_POINT('',(0.00982345197722316,0.0183006231504272,0.));
#1008=CARTESIAN_POINT('',(0.00982345197722316,0.00280062315042725,0.));
#1009=CARTESIAN_POINT('',(0.00982345197722316,-0.0126993768495727,0.));
#1010=CARTESIAN_POINT('',(0.0133234519772231,-0.0126993768495727,0.));
#1011=CARTESIAN_POINT('',(0.0168234519772231,-0.0126993768495727,0.));
#1012=CARTESIAN_POINT('',(0.0168234519772231,-0.0161993768495728,0.));
#1013=CARTESIAN_POINT('',(-0.00167654802277684,-0.0156993768495727,0.));
#1014=CARTESIAN_POINT('',(-0.00167654802277684,-0.0116993768495727,0.));
#1015=CARTESIAN_POINT('',(-0.00917654802277684,-0.0116993768495727,0.));
#1016=CARTESIAN_POINT('',(-0.0281765480227768,0.00280062315042726,0.002));
#1017=CARTESIAN_POINT('',(-0.0281765480227768,-0.0126993768495727,0.002));
#1018=CARTESIAN_POINT('',(-0.0281765480227768,0.0143006231504272,0.005));
#1019=CARTESIAN_POINT('',(-0.0281765480227768,0.0143006231504272,0.005));
#1020=CARTESIAN_POINT('',(-0.0281765480227768,0.00280062315042726,0.005));
#1021=CARTESIAN_POINT('',(-0.0281765480227768,0.0183006231504272,0.005));
#1022=CARTESIAN_POINT('',(-0.0281765480227768,0.0183006231504272,0.002));
#1023=CARTESIAN_POINT('',(-0.0316765480227768,-0.0126993768495727,0.002));
#1024=CARTESIAN_POINT('',(-0.0351765480227769,-0.0126993768495727,0.002));
#1025=CARTESIAN_POINT('',(-0.0351765480227769,-0.0161993768495728,0.002));
#1026=CARTESIAN_POINT('',(-0.0351765480227769,-0.0196993768495728,0.002));
#1027=CARTESIAN_POINT('',(-0.00917654802277684,-0.0196993768495728,0.002));
#1028=CARTESIAN_POINT('',(-0.0166765480227769,-0.0196993768495728,0.));
#1029=CARTESIAN_POINT('',(-0.0241765480227768,-0.0196993768495728,0.005));
#1030=CARTESIAN_POINT('',(-0.0241765480227768,-0.0196993768495728,0.005));
#1031=CARTESIAN_POINT('',(-0.00917654802277684,-0.0196993768495728,0.005));
#1032=CARTESIAN_POINT('',(-0.0281765480227768,-0.0196993768495728,0.005));
#1033=CARTESIAN_POINT('',(-0.0281765480227768,-0.0196993768495728,0.005));
#1034=CARTESIAN_POINT('',(0.0168234519772231,-0.0161993768495728,0.002));
#1035=CARTESIAN_POINT('',(0.0168234519772231,-0.0126993768495727,0.002));
#1036=CARTESIAN_POINT('',(0.0133234519772231,-0.0126993768495727,0.002));
#1037=CARTESIAN_POINT('',(0.00982345197722316,-0.0126993768495727,0.002));
#1038=CARTESIAN_POINT('',(0.00982345197722316,0.00280062315042725,0.002));
#1039=CARTESIAN_POINT('',(0.00982345197722316,0.0183006231504272,0.002));
#1040=CARTESIAN_POINT('',(0.00982345197722316,0.0183006231504272,0.005));
#1041=CARTESIAN_POINT('',(0.00982345197722316,0.00280062315042725,0.005));
#1042=CARTESIAN_POINT('',(0.00982345197722316,0.0143006231504272,0.005));
#1043=CARTESIAN_POINT('',(0.00982345197722316,0.0143006231504272,0.005));
#1044=CARTESIAN_POINT('',(-0.00917654802277685,0.0183006231504272,0.002));
#1045=CARTESIAN_POINT('',(-0.00917654802277685,0.0183006231504272,0.005));
#1046=CARTESIAN_POINT('',(-0.0241765480227768,0.0183006231504272,0.005));
#1047=CARTESIAN_POINT('',(-0.0241765480227768,0.0183006231504272,0.005));
#1048=CARTESIAN_POINT('',(0.00582345197722315,0.0183006231504272,0.005));
#1049=CARTESIAN_POINT('',(0.00582345197722315,0.0183006231504272,0.005));
#1050=CARTESIAN_POINT('',(-0.00917654802277685,0.0183006231504272,0.005));
#1051=CARTESIAN_POINT('',(-0.0261765480227769,0.0143006231504272,0.005));
#1052=CARTESIAN_POINT('',(-0.0241765480227768,0.0143006231504272,0.005));
#1053=CARTESIAN_POINT('',(-0.0241765480227768,0.0143006231504272,0.005));
#1054=CARTESIAN_POINT('',(-0.0261765480227769,0.0143006231504272,0.005));
#1055=CARTESIAN_POINT('',(-0.0241765480227768,0.0163006231504272,0.005));
#1056=CARTESIAN_POINT('',(-0.0241765480227768,0.0163006231504272,0.005));
#1057=CARTESIAN_POINT('',(-0.00917654802277684,-0.000699376849572747,0.005));
#1058=CARTESIAN_POINT('',(-0.0261765480227769,0.0163006231504272,0.005));
#1059=CARTESIAN_POINT('',(-0.0249265480227768,0.0163006231504272,0.005));
#1060=CARTESIAN_POINT('',(0.00982345197722316,-0.0176993768495727,0.005));
#1061=CARTESIAN_POINT('',(0.00982345197722316,-0.0156993768495727,0.005));
#1062=CARTESIAN_POINT('',(0.00982345197722316,-0.0156993768495727,0.005));
#1063=CARTESIAN_POINT('',(0.00982345197722316,-0.0176993768495727,0.005));
#1064=CARTESIAN_POINT('',(0.00782345197722316,-0.0156993768495727,0.005));
#1065=CARTESIAN_POINT('',(0.00582345197722316,-0.0156993768495727,0.005));
#1066=CARTESIAN_POINT('',(0.00582345197722316,-0.0156993768495727,0.005));
#1067=CARTESIAN_POINT('',(0.00782345197722316,-0.0156993768495727,0.005));
#1068=CARTESIAN_POINT('',(0.00582345197722316,-0.0176993768495727,0.005));
#1069=CARTESIAN_POINT('',(0.00582345197722316,-0.0176993768495727,0.005));
#1070=CARTESIAN_POINT('',(-0.00917654802277684,-0.000699376849572747,0.005));
#1071=CARTESIAN_POINT('',(0.00782345197722316,-0.0176993768495727,0.005));
#1072=CARTESIAN_POINT('',(0.00907345197722316,-0.0176993768495727,0.005));
#1073=CARTESIAN_POINT('',(-0.0281765480227768,-0.0176993768495727,0.005));
#1074=CARTESIAN_POINT('',(-0.0281765480227768,-0.0176993768495727,0.005));
#1075=CARTESIAN_POINT('',(-0.0281765480227768,-0.0156993768495727,0.005));
#1076=CARTESIAN_POINT('',(-0.0281765480227768,-0.0156993768495727,0.005));
#1077=CARTESIAN_POINT('',(-0.0241765480227768,-0.0176993768495727,0.005));
#1078=CARTESIAN_POINT('',(-0.0241765480227768,-0.0156993768495727,0.005));
#1079=CARTESIAN_POINT('',(-0.0241765480227768,-0.0156993768495727,0.005));
#1080=CARTESIAN_POINT('',(-0.0241765480227768,-0.0176993768495727,0.005));
#1081=CARTESIAN_POINT('',(-0.0261765480227769,-0.0156993768495727,0.005));
#1082=CARTESIAN_POINT('',(-0.0261765480227769,-0.0156993768495727,0.005));
#1083=CARTESIAN_POINT('',(-0.00917654802277684,-0.000699376849572747,0.005));
#1084=CARTESIAN_POINT('',(-0.0261765480227769,-0.0176993768495727,0.005));
#1085=CARTESIAN_POINT('',(-0.0249265480227768,-0.0176993768495727,0.005));
#1086=CARTESIAN_POINT('',(0.00782345197722315,0.0143006231504272,0.005));
#1087=CARTESIAN_POINT('',(0.00782345197722315,0.0143006231504272,0.005));
#1088=CARTESIAN_POINT('',(0.00582345197722315,0.0143006231504272,0.005));
#1089=CARTESIAN_POINT('',(0.00582345197722315,0.0143006231504272,0.005));
#1090=CARTESIAN_POINT('',(0.00582345197722315,0.0163006231504272,0.005));
#1091=CARTESIAN_POINT('',(0.00582345197722315,0.0163006231504272,0.005));
#1092=CARTESIAN_POINT('',(-0.00917654802277684,-0.000699376849572747,0.005));
#1093=CARTESIAN_POINT('',(0.00782345197722315,0.0163006231504272,0.005));
#1094=CARTESIAN_POINT('',(0.00907345197722315,0.0163006231504272,0.005));
#1095=CARTESIAN_POINT('',(0.0133234519772232,-0.0161993768495728,0.));
#1096=CARTESIAN_POINT('',(-0.0316765480227768,-0.0161993768495728,0.));
#1097=CARTESIAN_POINT('',(0.00782345197722315,0.0163006231504272,0.));
#1098=CARTESIAN_POINT('',(-0.0261765480227769,-0.0176993768495727,0.));
#1099=CARTESIAN_POINT('',(0.00782345197722316,-0.0176993768495727,0.));
#1100=CARTESIAN_POINT('',(-0.0261765480227769,0.0163006231504272,0.));
#1101=CARTESIAN_POINT('',(-0.0166765480227769,-0.0156993768495727,0.));
#1102=CARTESIAN_POINT('',(-0.0166765480227769,-0.0116993768495727,0.));
#1103=CARTESIAN_POINT('',(-0.00167654802277684,-0.0156993768495727,0.));
#1104=CARTESIAN_POINT('',(-0.00167654802277684,-0.0116993768495727,0.));
#1105=CARTESIAN_POINT('',(-0.00917654802277684,-0.0116993768495727,0.));
#1106=MECHANICAL_DESIGN_GEOMETRIC_PRESENTATION_REPRESENTATION('',(#687),
#1107);
#1107=(
GEOMETRIC_REPRESENTATION_CONTEXT(3)
GLOBAL_UNCERTAINTY_ASSIGNED_CONTEXT((#1108))
GLOBAL_UNIT_ASSIGNED_CONTEXT((#1111,#1110,#1109))
REPRESENTATION_CONTEXT('Part 1','TOP_LEVEL_ASSEMBLY_PART')
);
#1108=UNCERTAINTY_MEASURE_WITH_UNIT(LENGTH_MEASURE(1.E-8),#1111,
'DISTANCE_ACCURACY_VALUE','Maximum Tolerance applied to model');
#1109=(
NAMED_UNIT(*)
SI_UNIT($,.STERADIAN.)
SOLID_ANGLE_UNIT()
);
#1110=(
NAMED_UNIT(*)
PLANE_ANGLE_UNIT()
SI_UNIT($,.RADIAN.)
);
#1111=(
LENGTH_UNIT()
NAMED_UNIT(*)
SI_UNIT($,.METRE.)
);
#1112=PRODUCT_DEFINITION_SHAPE('','',#1113);
#1113=PRODUCT_DEFINITION('','',#1115,#1114);
#1114=PRODUCT_DEFINITION_CONTEXT('',#1121,'design');
#1115=PRODUCT_DEFINITION_FORMATION_WITH_SPECIFIED_SOURCE('','',#1117,
 .NOT_KNOWN.);
#1116=PRODUCT_RELATED_PRODUCT_CATEGORY('','',(#1117));
#1117=PRODUCT('Part 1','Part 1','Part 1',(#1119));
#1118=PRODUCT_CATEGORY('','');
#1119=PRODUCT_CONTEXT('',#1121,'mechanical');
#1120=APPLICATION_PROTOCOL_DEFINITION('international standard',
'ap242_managed_model_based_3d_engineering',2020,#1121);
#1121=APPLICATION_CONTEXT('managed model based 3d engineering');
ENDSEC;
END-ISO-10303-21;
